<svg width="24" height="24" viewBox="0 0 24 24" fill="none" xmlns="http://www.w3.org/2000/svg">
<mask id="mask0_1_63" style="mask-type:alpha" maskUnits="userSpaceOnUse" x="0" y="0" width="24" height="24">
<rect width="24" height="24" fill="#D9D9D9"/>
</mask>
<g mask="url(#mask0_1_63)">
<path d="M19.8 7.25C19.9833 7.43333 20.075 7.66667 20.075 7.95C20.075 8.23333 19.9833 8.46667 19.8 8.65L19.075 9.375C18.875 9.575 18.6375 9.675 18.3625 9.675C18.0875 9.675 17.85 9.575 17.65 9.375C17.45 9.175 17.3542 8.9375 17.3625 8.6625C17.3708 8.3875 17.475 8.15 17.675 7.95L18.4 7.225C18.6 7.04167 18.8375 6.95417 19.1125 6.9625C19.3875 6.97083 19.6167 7.06667 19.8 7.25ZM3 20C2.71667 20 2.47917 19.9042 2.2875 19.7125C2.09583 19.5208 2 19.2833 2 19C2 18.7167 2.09583 18.4792 2.2875 18.2875C2.47917 18.0958 2.71667 18 3 18H21C21.2833 18 21.5208 18.0958 21.7125 18.2875C21.9042 18.4792 22 18.7167 22 19C22 19.2833 21.9042 19.5208 21.7125 19.7125C21.5208 19.9042 21.2833 20 21 20H3ZM12.7125 4.2875C12.9042 4.47917 13 4.71667 13 5V6C13 6.28333 12.9042 6.52083 12.7125 6.7125C12.5208 6.90417 12.2833 7 12 7C11.7167 7 11.4792 6.90417 11.2875 6.7125C11.0958 6.52083 11 6.28333 11 6V5C11 4.71667 11.0958 4.47917 11.2875 4.2875C11.4792 4.09583 11.7167 4 12 4C12.2833 4 12.5208 4.09583 12.7125 4.2875ZM4.25 7.2C4.43333 7.01667 4.66667 6.925 4.95 6.925C5.23333 6.925 5.46667 7.01667 5.65 7.2L6.375 7.925C6.575 8.125 6.675 8.3625 6.675 8.6375C6.675 8.9125 6.575 9.15 6.375 9.35C6.175 9.53333 5.93333 9.625 5.65 9.625C5.36667 9.625 5.13333 9.525 4.95 9.325L4.225 8.6C4.04167 8.4 3.95417 8.1625 3.9625 7.8875C3.97083 7.6125 4.06667 7.38333 4.25 7.2ZM7.425 14H16.575C16.1917 13.1 15.5917 12.375 14.775 11.825C13.9583 11.275 13.0333 11 12 11C10.9667 11 10.0417 11.275 9.225 11.825C8.40833 12.375 7.80833 13.1 7.425 14ZM5 16C5 14.05 5.67917 12.3958 7.0375 11.0375C8.39583 9.67917 10.05 9 12 9C13.95 9 15.6042 9.67917 16.9625 11.0375C18.3208 12.3958 19 14.05 19 16H5Z" fill="white"/>
</g>
</svg>
