<svg width="24" height="24" viewBox="0 0 24 24" fill="none" xmlns="http://www.w3.org/2000/svg">
<mask id="mask0_21_305" style="mask-type:alpha" maskUnits="userSpaceOnUse" x="0" y="0" width="24" height="24">
<rect width="24" height="24" fill="#D9D9D9"/>
</mask>
<g mask="url(#mask0_21_305)">
<path d="M12.1 22C10.7 22 9.3875 21.7333 8.1625 21.2C6.9375 20.6667 5.87083 19.9458 4.9625 19.0375C4.05417 18.1292 3.33333 17.0625 2.8 15.8375C2.26667 14.6125 2 13.3 2 11.9C2 9.76667 2.6 7.83333 3.8 6.1C5 4.36667 6.60833 3.15 8.625 2.45C8.99167 2.31667 9.33333 2.3625 9.65 2.5875C9.96667 2.8125 10.1167 3.11667 10.1 3.5C10.05 4.91667 10.275 6.26667 10.775 7.55C11.275 8.83333 12.025 9.975 13.025 10.975C14.025 11.975 15.1667 12.725 16.45 13.225C17.7333 13.725 19.0833 13.95 20.5 13.9C20.9333 13.8833 21.2542 14.0292 21.4625 14.3375C21.6708 14.6458 21.7083 14.9917 21.575 15.375C20.8417 17.375 19.6125 18.9792 17.8875 20.1875C16.1625 21.3958 14.2333 22 12.1 22ZM12.1 20C13.5667 20 14.925 19.6333 16.175 18.9C17.425 18.1667 18.4083 17.1583 19.125 15.875C17.6917 15.7417 16.3333 15.3792 15.05 14.7875C13.7667 14.1958 12.6167 13.3917 11.6 12.375C10.5833 11.3583 9.775 10.2083 9.175 8.925C8.575 7.64167 8.21667 6.28333 8.1 4.85C6.81667 5.56667 5.8125 6.55417 5.0875 7.8125C4.3625 9.07083 4 10.4333 4 11.9C4 14.15 4.7875 16.0625 6.3625 17.6375C7.9375 19.2125 9.85 20 12.1 20Z" fill="#1C1B1F"/>
</g>
</svg>
