<svg width="24" height="24" viewBox="0 0 24 24" fill="none" xmlns="http://www.w3.org/2000/svg">
<mask id="mask0_4_13" style="mask-type:alpha" maskUnits="userSpaceOnUse" x="0" y="0" width="24" height="24">
<rect width="24" height="24" fill="#D9D9D9"/>
</mask>
<g mask="url(#mask0_4_13)">
<path d="M12 7C10.5333 7 9.10417 7.22917 7.71251 7.6875C6.32084 8.14583 5.04167 8.825 3.87501 9.725C3.54167 9.99167 3.16251 10.1208 2.73751 10.1125C2.31251 10.1042 1.95001 9.95 1.65001 9.65C1.36667 9.36667 1.22501 9.01667 1.22501 8.6C1.22501 8.18333 1.39167 7.85 1.72501 7.6C3.19167 6.43333 4.80417 5.54167 6.56251 4.925C8.32084 4.30833 10.1333 4 12 4C13.8833 4 15.7 4.30833 17.45 4.925C19.2 5.54167 20.8083 6.43333 22.275 7.6C22.6083 7.85 22.775 8.18333 22.775 8.6C22.775 9.01667 22.6333 9.36667 22.35 9.65C22.05 9.95 21.6875 10.1042 21.2625 10.1125C20.8375 10.1208 20.4583 9.99167 20.125 9.725C18.9583 8.825 17.6833 8.14583 16.3 7.6875C14.9167 7.22917 13.4833 7 12 7ZM12 13C11.3167 13 10.6542 13.0875 10.0125 13.2625C9.37084 13.4375 8.75834 13.7 8.17501 14.05C7.80834 14.2833 7.41251 14.3917 6.98751 14.375C6.56251 14.3583 6.20001 14.2 5.90001 13.9C5.61667 13.6167 5.47917 13.2708 5.48751 12.8625C5.49584 12.4542 5.66667 12.1333 6.00001 11.9C6.88334 11.2833 7.83334 10.8125 8.85001 10.4875C9.86667 10.1625 10.9167 10 12 10C13.0833 10 14.1333 10.1625 15.15 10.4875C16.1667 10.8125 17.1167 11.2833 18 11.9C18.3333 12.1333 18.5042 12.4542 18.5125 12.8625C18.5208 13.2708 18.3833 13.6167 18.1 13.9C17.8 14.2 17.4375 14.3583 17.0125 14.375C16.5875 14.3917 16.1917 14.2833 15.825 14.05C15.2417 13.7 14.6292 13.4375 13.9875 13.2625C13.3458 13.0875 12.6833 13 12 13ZM10.5875 19.4125C10.1958 19.0208 10 18.55 10 18C10 17.45 10.1958 16.9792 10.5875 16.5875C10.9792 16.1958 11.45 16 12 16C12.55 16 13.0208 16.1958 13.4125 16.5875C13.8042 16.9792 14 17.45 14 18C14 18.55 13.8042 19.0208 13.4125 19.4125C13.0208 19.8042 12.55 20 12 20C11.45 20 10.9792 19.8042 10.5875 19.4125Z" fill="white"/>
</g>
</svg>
