<svg width="24" height="24" viewBox="0 0 24 24" fill="none" xmlns="http://www.w3.org/2000/svg">
<mask id="mask0_21_269" style="mask-type:alpha" maskUnits="userSpaceOnUse" x="0" y="0" width="24" height="24">
<rect width="24" height="24" fill="#D9D9D9"/>
</mask>
<g mask="url(#mask0_21_269)">
<path d="M4.94996 11.9C4.69996 12.0333 4.4458 12.0542 4.18746 11.9625C3.92913 11.8708 3.7333 11.7 3.59996 11.45L1.09996 6.45C0.96663 6.2 0.945797 5.94584 1.03746 5.6875C1.12913 5.42917 1.29996 5.23334 1.54996 5.1C1.79996 4.96667 2.05413 4.94584 2.31246 5.0375C2.5708 5.12917 2.76663 5.3 2.89996 5.55L5.39996 10.55C5.5333 10.8 5.55413 11.0542 5.46246 11.3125C5.3708 11.5708 5.19996 11.7667 4.94996 11.9ZM8.44996 18.9C8.19996 19.0333 7.9458 19.0542 7.68746 18.9625C7.42913 18.8708 7.2333 18.7 7.09996 18.45L5.09996 14.45C4.96663 14.2 4.9458 13.9458 5.03746 13.6875C5.12913 13.4292 5.29996 13.2333 5.54996 13.1C5.79996 12.9667 6.05413 12.9458 6.31246 13.0375C6.5708 13.1292 6.76663 13.3 6.89996 13.55L8.89996 17.55C9.0333 17.8 9.05413 18.0542 8.96246 18.3125C8.8708 18.5708 8.69996 18.7667 8.44996 18.9ZM10.5 13.9C10.25 14.0333 9.9958 14.0542 9.73746 13.9625C9.47913 13.8708 9.2833 13.7 9.14996 13.45L5.64996 6.45C5.51663 6.2 5.4958 5.94584 5.58746 5.6875C5.67913 5.42917 5.84996 5.23334 6.09996 5.1C6.34996 4.96667 6.60413 4.94584 6.86246 5.0375C7.1208 5.12917 7.31663 5.3 7.44996 5.55L10.95 12.55C11.0833 12.8 11.1041 13.0542 11.0125 13.3125C10.9208 13.5708 10.75 13.7667 10.5 13.9ZM12.65 8.9C12.4 9.03334 12.1458 9.05417 11.8875 8.9625C11.6291 8.87084 11.4333 8.7 11.3 8.45L10.325 6.45C10.1916 6.2 10.1708 5.94584 10.2625 5.6875C10.3541 5.42917 10.525 5.23334 10.775 5.1C11.025 4.96667 11.275 4.94584 11.525 5.0375C11.775 5.12917 11.9666 5.3 12.1 5.55L13.1 7.55C13.2333 7.8 13.2541 8.05417 13.1625 8.3125C13.0708 8.57084 12.9 8.76667 12.65 8.9ZM12.4875 18.95C12.2291 18.8667 12.0333 18.7 11.9 18.45L10.9 16.45C10.7666 16.2 10.7458 15.9458 10.8375 15.6875C10.9291 15.4292 11.1 15.2333 11.35 15.1C11.6 14.9667 11.8541 14.9458 12.1125 15.0375C12.3708 15.1292 12.5666 15.3 12.7 15.55L13.7 17.55C13.8333 17.8 13.8541 18.05 13.7625 18.3C13.6708 18.55 13.5 18.7417 13.25 18.875C13 19.0083 12.7458 19.0333 12.4875 18.95ZM17.9 18.875C17.65 19.0083 17.3958 19.0333 17.1375 18.95C16.8791 18.8667 16.6833 18.7 16.55 18.45L13.05 11.45C12.9166 11.2 12.8958 10.9458 12.9875 10.6875C13.0791 10.4292 13.25 10.2333 13.5 10.1C13.75 9.96667 14.0041 9.94584 14.2625 10.0375C14.5208 10.1292 14.7166 10.3 14.85 10.55L18.35 17.55C18.4833 17.8 18.5041 18.05 18.4125 18.3C18.3208 18.55 18.15 18.7417 17.9 18.875ZM19.45 12.9C19.2 13.0333 18.9458 13.0542 18.6875 12.9625C18.4291 12.8708 18.2333 12.7 18.1 12.45L15.1 6.45C14.9666 6.2 14.9458 5.94584 15.0375 5.6875C15.1291 5.42917 15.3 5.23334 15.55 5.1C15.8 4.96667 16.0541 4.94584 16.3125 5.0375C16.5708 5.12917 16.7666 5.3 16.9 5.55L19.9 11.55C20.0333 11.8 20.0541 12.0542 19.9625 12.3125C19.8708 12.5708 19.7 12.7667 19.45 12.9ZM22.45 18.9C22.2 19.0333 21.9458 19.0542 21.6875 18.9625C21.4291 18.8708 21.2333 18.7 21.1 18.45L19.6 15.45C19.4666 15.2 19.4458 14.9458 19.5375 14.6875C19.6291 14.4292 19.8 14.2333 20.05 14.1C20.3 13.9667 20.5541 13.9458 20.8125 14.0375C21.0708 14.1292 21.2666 14.3 21.4 14.55L22.9 17.55C23.0333 17.8 23.0541 18.0542 22.9625 18.3125C22.8708 18.5708 22.7 18.7667 22.45 18.9Z" fill="#1C1B1F"/>
</g>
</svg>
