<svg width="24" height="24" viewBox="0 0 24 24" fill="none" xmlns="http://www.w3.org/2000/svg">
<mask id="mask0_21_281" style="mask-type:alpha" maskUnits="userSpaceOnUse" x="0" y="0" width="24" height="24">
<rect width="24" height="24" fill="#D9D9D9"/>
</mask>
<g mask="url(#mask0_21_281)">
<path d="M13.95 21.9C13.7 22.0333 13.4458 22.0542 13.1875 21.9625C12.9292 21.8708 12.7333 21.7 12.6 21.45L11.1 18.45C10.9667 18.2 10.9458 17.9458 11.0375 17.6875C11.1292 17.4292 11.3 17.2333 11.55 17.1C11.8 16.9667 12.0542 16.9458 12.3125 17.0375C12.5708 17.1292 12.7667 17.3 12.9 17.55L14.4 20.55C14.5333 20.8 14.5542 21.0542 14.4625 21.3125C14.3708 21.5708 14.2 21.7667 13.95 21.9ZM19.95 21.9C19.7 22.0333 19.4458 22.0542 19.1875 21.9625C18.9292 21.8708 18.7333 21.7 18.6 21.45L17.1 18.45C16.9667 18.2 16.9458 17.9458 17.0375 17.6875C17.1292 17.4292 17.3 17.2333 17.55 17.1C17.8 16.9667 18.0542 16.9458 18.3125 17.0375C18.5708 17.1292 18.7667 17.3 18.9 17.55L20.4 20.55C20.5333 20.8 20.5542 21.0542 20.4625 21.3125C20.3708 21.5708 20.2 21.7667 19.95 21.9ZM7.95 21.9C7.7 22.0333 7.44583 22.0542 7.1875 21.9625C6.92917 21.8708 6.73333 21.7 6.6 21.45L5.1 18.45C4.96667 18.2 4.94583 17.9458 5.0375 17.6875C5.12917 17.4292 5.3 17.2333 5.55 17.1C5.8 16.9667 6.05417 16.9458 6.3125 17.0375C6.57083 17.1292 6.76667 17.3 6.9 17.55L8.4 20.55C8.53333 20.8 8.55417 21.0542 8.4625 21.3125C8.37083 21.5708 8.2 21.7667 7.95 21.9ZM7.5 16C5.98333 16 4.6875 15.4625 3.6125 14.3875C2.5375 13.3125 2 12.0167 2 10.5C2 9.11667 2.45833 7.90833 3.375 6.875C4.29167 5.84167 5.425 5.23333 6.775 5.05C7.30833 4.1 8.0375 3.35417 8.9625 2.8125C9.8875 2.27083 10.9 2 12 2C13.5 2 14.8042 2.47917 15.9125 3.4375C17.0208 4.39583 17.6917 5.59167 17.925 7.025C19.075 7.125 20.0417 7.6 20.825 8.45C21.6083 9.3 22 10.3167 22 11.5C22 12.75 21.5625 13.8125 20.6875 14.6875C19.8125 15.5625 18.75 16 17.5 16H7.5ZM7.5 14H17.5C18.2 14 18.7917 13.7583 19.275 13.275C19.7583 12.7917 20 12.2 20 11.5C20 10.8 19.7583 10.2083 19.275 9.725C18.7917 9.24167 18.2 9 17.5 9H16V8C16 6.9 15.6083 5.95833 14.825 5.175C14.0417 4.39167 13.1 4 12 4C11.2 4 10.4708 4.21667 9.8125 4.65C9.15417 5.08333 8.65833 5.66667 8.325 6.4L8.075 7H7.45C6.5 7.03333 5.6875 7.3875 5.0125 8.0625C4.3375 8.7375 4 9.55 4 10.5C4 11.4667 4.34167 12.2917 5.025 12.975C5.70833 13.6583 6.53333 14 7.5 14Z" fill="#1C1B1F"/>
</g>
</svg>
