<svg width="24" height="24" viewBox="0 0 24 24" fill="none" xmlns="http://www.w3.org/2000/svg">
<mask id="mask0_21_263" style="mask-type:alpha" maskUnits="userSpaceOnUse" x="0" y="0" width="24" height="24">
<rect width="24" height="24" fill="#D9D9D9"/>
</mask>
<g mask="url(#mask0_21_263)">
<path d="M8.44996 18.9C8.19996 19.0333 7.9458 19.0542 7.68746 18.9625C7.42913 18.8708 7.2333 18.7 7.09996 18.45L1.09996 6.45C0.96663 6.2 0.945797 5.94584 1.03746 5.6875C1.12913 5.42917 1.29996 5.23334 1.54996 5.1C1.79996 4.96667 2.05413 4.94584 2.31246 5.0375C2.5708 5.12917 2.76663 5.3 2.89996 5.55L8.89996 17.55C9.0333 17.8 9.05413 18.0542 8.96246 18.3125C8.8708 18.5708 8.69996 18.7667 8.44996 18.9ZM13.125 18.9C12.875 19.0333 12.6208 19.0542 12.3625 18.9625C12.1041 18.8708 11.9083 18.7 11.775 18.45L5.77496 6.45C5.64163 6.2 5.6208 5.94584 5.71246 5.6875C5.80413 5.42917 5.97496 5.23334 6.22496 5.1C6.47496 4.96667 6.72496 4.94584 6.97496 5.0375C7.22496 5.12917 7.41663 5.3 7.54996 5.55L13.575 17.55C13.7083 17.8 13.7291 18.0542 13.6375 18.3125C13.5458 18.5708 13.375 18.7667 13.125 18.9ZM17.8 18.875C17.55 19.0083 17.2958 19.0333 17.0375 18.95C16.7791 18.8667 16.5833 18.7 16.45 18.45L10.45 6.45C10.3166 6.2 10.2958 5.94584 10.3875 5.6875C10.4791 5.42917 10.65 5.23334 10.9 5.1C11.15 4.96667 11.4 4.94584 11.65 5.0375C11.9 5.12917 12.0916 5.3 12.225 5.55L18.25 17.55C18.3833 17.8 18.4041 18.05 18.3125 18.3C18.2208 18.55 18.05 18.7417 17.8 18.875ZM21.6875 18.9625C21.4291 18.8708 21.2333 18.7 21.1 18.45L15.1 6.45C14.9666 6.2 14.9458 5.94584 15.0375 5.6875C15.1291 5.42917 15.3 5.23334 15.55 5.1C15.8 4.96667 16.0541 4.94584 16.3125 5.0375C16.5708 5.12917 16.7666 5.3 16.9 5.55L22.9 17.55C23.0333 17.8 23.0541 18.0542 22.9625 18.3125C22.8708 18.5708 22.7 18.7667 22.45 18.9C22.2 19.0333 21.9458 19.0542 21.6875 18.9625Z" fill="#1C1B1F"/>
</g>
</svg>
