<svg width="24" height="24" viewBox="0 0 24 24" fill="none" xmlns="http://www.w3.org/2000/svg">
<mask id="mask0_31_25" style="mask-type:alpha" maskUnits="userSpaceOnUse" x="0" y="0" width="24" height="24">
<rect width="24" height="24" fill="#D9D9D9"/>
</mask>
<g mask="url(#mask0_31_25)">
<path d="M15.1875 14.6875C16.0625 13.8125 16.5 12.75 16.5 11.5C16.5 10.25 16.0625 9.1875 15.1875 8.3125C14.3125 7.4375 13.25 7 12 7C10.75 7 9.68752 7.4375 8.81252 8.3125C7.93752 9.1875 7.50002 10.25 7.50002 11.5C7.50002 12.75 7.93752 13.8125 8.81252 14.6875C9.68752 15.5625 10.75 16 12 16C13.25 16 14.3125 15.5625 15.1875 14.6875ZM10.0875 13.4125C9.56252 12.8875 9.30002 12.25 9.30002 11.5C9.30002 10.75 9.56252 10.1125 10.0875 9.5875C10.6125 9.0625 11.25 8.8 12 8.8C12.75 8.8 13.3875 9.0625 13.9125 9.5875C14.4375 10.1125 14.7 10.75 14.7 11.5C14.7 12.25 14.4375 12.8875 13.9125 13.4125C13.3875 13.9375 12.75 14.2 12 14.2C11.25 14.2 10.6125 13.9375 10.0875 13.4125ZM5.88752 17.2C4.04586 16 2.59169 14.4167 1.52502 12.45C1.44169 12.3 1.37919 12.1458 1.33752 11.9875C1.29586 11.8292 1.27502 11.6667 1.27502 11.5C1.27502 11.3333 1.29586 11.1708 1.33752 11.0125C1.37919 10.8542 1.44169 10.7 1.52502 10.55C2.59169 8.58333 4.04586 7 5.88752 5.8C7.72919 4.6 9.76669 4 12 4C14.2334 4 16.2709 4.6 18.1125 5.8C19.9542 7 21.4084 8.58333 22.475 10.55C22.5584 10.7 22.6209 10.8542 22.6625 11.0125C22.7042 11.1708 22.725 11.3333 22.725 11.5C22.725 11.6667 22.7042 11.8292 22.6625 11.9875C22.6209 12.1458 22.5584 12.3 22.475 12.45C21.4084 14.4167 19.9542 16 18.1125 17.2C16.2709 18.4 14.2334 19 12 19C9.76669 19 7.72919 18.4 5.88752 17.2ZM17.1875 15.5125C18.7625 14.5208 19.9667 13.1833 20.8 11.5C19.9667 9.81667 18.7625 8.47917 17.1875 7.4875C15.6125 6.49583 13.8834 6 12 6C10.1167 6 8.38752 6.49583 6.81252 7.4875C5.23752 8.47917 4.03336 9.81667 3.20002 11.5C4.03336 13.1833 5.23752 14.5208 6.81252 15.5125C8.38752 16.5042 10.1167 17 12 17C13.8834 17 15.6125 16.5042 17.1875 15.5125Z" fill="#1C1B1F"/>
</g>
</svg>
