<svg width="24" height="24" viewBox="0 0 24 24" fill="none" xmlns="http://www.w3.org/2000/svg">
<mask id="mask0_1_37" style="mask-type:alpha" maskUnits="userSpaceOnUse" x="0" y="0" width="24" height="24">
<rect width="24" height="24" fill="#D9D9D9"/>
</mask>
<g mask="url(#mask0_1_37)">
<path d="M11 3V2C11 1.71667 11.0958 1.47917 11.2875 1.2875C11.4792 1.09583 11.7167 1 12 1C12.2833 1 12.5208 1.09583 12.7125 1.2875C12.9042 1.47917 13 1.71667 13 2V3C13 3.28333 12.9042 3.52083 12.7125 3.7125C12.5208 3.90417 12.2833 4 12 4C11.7167 4 11.4792 3.90417 11.2875 3.7125C11.0958 3.52083 11 3.28333 11 3ZM11 22V21C11 20.7167 11.0958 20.4792 11.2875 20.2875C11.4792 20.0958 11.7167 20 12 20C12.2833 20 12.5208 20.0958 12.7125 20.2875C12.9042 20.4792 13 20.7167 13 21V22C13 22.2833 12.9042 22.5208 12.7125 22.7125C12.5208 22.9042 12.2833 23 12 23C11.7167 23 11.4792 22.9042 11.2875 22.7125C11.0958 22.5208 11 22.2833 11 22ZM22 13H21C20.7167 13 20.4792 12.9042 20.2875 12.7125C20.0958 12.5208 20 12.2833 20 12C20 11.7167 20.0958 11.4792 20.2875 11.2875C20.4792 11.0958 20.7167 11 21 11H22C22.2833 11 22.5208 11.0958 22.7125 11.2875C22.9042 11.4792 23 11.7167 23 12C23 12.2833 22.9042 12.5208 22.7125 12.7125C22.5208 12.9042 22.2833 13 22 13ZM3 13H2C1.71667 13 1.47917 12.9042 1.2875 12.7125C1.09583 12.5208 1 12.2833 1 12C1 11.7167 1.09583 11.4792 1.2875 11.2875C1.47917 11.0958 1.71667 11 2 11H3C3.28333 11 3.52083 11.0958 3.7125 11.2875C3.90417 11.4792 4 11.7167 4 12C4 12.2833 3.90417 12.5208 3.7125 12.7125C3.52083 12.9042 3.28333 13 3 13ZM19.75 5.675L19.4 6.025C19.2167 6.20833 18.9875 6.3 18.7125 6.3C18.4375 6.3 18.2 6.2 18 6C17.8167 5.81667 17.7208 5.5875 17.7125 5.3125C17.7042 5.0375 17.7917 4.8 17.975 4.6L18.35 4.225C18.5333 4.025 18.7667 3.925 19.05 3.925C19.3333 3.925 19.575 4.025 19.775 4.225C19.975 4.425 20.0708 4.66667 20.0625 4.95C20.0542 5.23333 19.95 5.475 19.75 5.675ZM6.025 19.4L5.65 19.775C5.46667 19.975 5.23333 20.075 4.95 20.075C4.66667 20.075 4.425 19.975 4.225 19.775C4.025 19.575 3.92917 19.3333 3.9375 19.05C3.94583 18.7667 4.05 18.525 4.25 18.325L4.6 17.975C4.78333 17.7917 5.0125 17.7 5.2875 17.7C5.5625 17.7 5.8 17.8 6 18C6.18333 18.1833 6.27917 18.4125 6.2875 18.6875C6.29583 18.9625 6.20833 19.2 6.025 19.4ZM18.325 19.75L17.975 19.4C17.7917 19.2167 17.7 18.9875 17.7 18.7125C17.7 18.4375 17.8 18.2 18 18C18.1833 17.8167 18.4125 17.7208 18.6875 17.7125C18.9625 17.7042 19.2 17.7917 19.4 17.975L19.775 18.35C19.975 18.5333 20.075 18.7667 20.075 19.05C20.075 19.3333 19.975 19.575 19.775 19.775C19.575 19.975 19.3333 20.0708 19.05 20.0625C18.7667 20.0542 18.525 19.95 18.325 19.75ZM4.6 6.025L4.225 5.65C4.025 5.46667 3.925 5.23333 3.925 4.95C3.925 4.66667 4.025 4.425 4.225 4.225C4.425 4.025 4.66667 3.92917 4.95 3.9375C5.23333 3.94583 5.475 4.05 5.675 4.25L6.025 4.6C6.20833 4.78333 6.3 5.0125 6.3 5.2875C6.3 5.5625 6.2 5.8 6 6C5.81667 6.18333 5.5875 6.27917 5.3125 6.2875C5.0375 6.29583 4.8 6.20833 4.6 6.025ZM7.75 16.25C6.58333 15.0833 6 13.6667 6 12C6 10.3333 6.58333 8.91667 7.75 7.75C8.91667 6.58333 10.3333 6 12 6C13.6667 6 15.0833 6.58333 16.25 7.75C17.4167 8.91667 18 10.3333 18 12C18 13.6667 17.4167 15.0833 16.25 16.25C15.0833 17.4167 13.6667 18 12 18C10.3333 18 8.91667 17.4167 7.75 16.25ZM14.8375 14.8375C15.6125 14.0625 16 13.1167 16 12C16 10.8833 15.6125 9.9375 14.8375 9.1625C14.0625 8.3875 13.1167 8 12 8C10.8833 8 9.9375 8.3875 9.1625 9.1625C8.3875 9.9375 8 10.8833 8 12C8 13.1167 8.3875 14.0625 9.1625 14.8375C9.9375 15.6125 10.8833 16 12 16C13.1167 16 14.0625 15.6125 14.8375 14.8375Z" fill="white"/>
</g>
</svg>
