<svg width="24" height="24" viewBox="0 0 24 24" fill="none" xmlns="http://www.w3.org/2000/svg">
<mask id="mask0_21_287" style="mask-type:alpha" maskUnits="userSpaceOnUse" x="0" y="0" width="24" height="24">
<rect width="24" height="24" fill="#D9D9D9"/>
</mask>
<g mask="url(#mask0_21_287)">
<path d="M13.1 22H10.5L11 21.6875C11.3333 21.4792 11.6958 21.2458 12.0875 20.9875C12.4792 20.7292 12.8417 20.4958 13.175 20.2875L13.675 19.975C15.025 19.875 16.2708 19.4667 17.4125 18.75C18.5542 18.0333 19.4583 17.075 20.125 15.875C18.6917 15.7417 17.3333 15.3792 16.05 14.7875C14.7667 14.1958 13.6167 13.3917 12.6 12.375C11.5833 11.3583 10.775 10.2083 10.175 8.925C9.575 7.64167 9.21667 6.28334 9.1 4.85C7.81667 5.56667 6.8125 6.55417 6.0875 7.8125C5.3625 9.07084 5 10.4333 5 11.9V12.2L4.7 12.3375C4.5 12.4292 4.27917 12.525 4.0375 12.625C3.79583 12.725 3.575 12.8208 3.375 12.9125L3.075 13.05C3.04167 12.8667 3.02083 12.675 3.0125 12.475C3.00417 12.275 3 12.0833 3 11.9C3 9.8 3.63333 7.84167 4.9 6.025C6.16667 4.20834 7.825 3 9.875 2.4C10.0583 2.35 10.225 2.34167 10.375 2.375C10.525 2.40834 10.6667 2.475 10.8 2.575C10.9333 2.675 11.0292 2.79584 11.0875 2.9375C11.1458 3.07917 11.1667 3.24167 11.15 3.425C11.05 4.84167 11.2542 6.20417 11.7625 7.5125C12.2708 8.82084 13.025 9.975 14.025 10.975C15.0417 11.9917 16.1875 12.7417 17.4625 13.225C18.7375 13.7083 20.0833 13.9083 21.5 13.825C21.6833 13.8083 21.8542 13.8375 22.0125 13.9125C22.1708 13.9875 22.2917 14.0917 22.375 14.225C22.4583 14.3583 22.5167 14.5 22.55 14.65C22.5833 14.8 22.5667 14.9667 22.5 15.15C21.7833 17.2333 20.6 18.8958 18.95 20.1375C17.3 21.3792 15.35 22 13.1 22ZM6 20H10.5C10.9167 20 11.2708 19.8542 11.5625 19.5625C11.8542 19.2708 12 18.9167 12 18.5C12 18.0833 11.8583 17.7292 11.575 17.4375C11.2917 17.1458 10.95 17 10.55 17H9.25L8.75 15.8C8.51667 15.25 8.15 14.8125 7.65 14.4875C7.15 14.1625 6.6 14 6 14C5.16667 14 4.45833 14.2875 3.875 14.8625C3.29167 15.4375 3 16.15 3 17C3 17.8333 3.29167 18.5417 3.875 19.125C4.45833 19.7083 5.16667 20 6 20ZM6 22C4.61667 22 3.4375 21.5125 2.4625 20.5375C1.4875 19.5625 1 18.3833 1 17C1 15.6167 1.4875 14.4375 2.4625 13.4625C3.4375 12.4875 4.61667 12 6 12C7 12 7.9125 12.2708 8.7375 12.8125C9.5625 13.3542 10.175 14.0833 10.575 15C11.525 15.0333 12.3333 15.3875 13 16.0625C13.6667 16.7375 14 17.55 14 18.5C14 19.4667 13.6583 20.2917 12.975 20.975C12.2917 21.6583 11.4667 22 10.5 22H6Z" fill="#1C1B1F"/>
</g>
</svg>
