<svg width="24" height="24" viewBox="0 0 24 24" fill="none" xmlns="http://www.w3.org/2000/svg">
<mask id="mask0_21_329" style="mask-type:alpha" maskUnits="userSpaceOnUse" x="0" y="0" width="24" height="24">
<rect width="24" height="24" fill="#D9D9D9"/>
</mask>
<g mask="url(#mask0_21_329)">
<path d="M6 15.25C5.66667 15.25 5.375 15.125 5.125 14.875C4.875 14.625 4.75 14.3333 4.75 14C4.75 13.65 4.875 13.3542 5.125 13.1125C5.375 12.8708 5.66667 12.75 6 12.75C6.35 12.75 6.64583 12.8708 6.8875 13.1125C7.12917 13.3542 7.25 13.65 7.25 14C7.25 14.3333 7.12917 14.625 6.8875 14.875C6.64583 15.125 6.35 15.25 6 15.25ZM6 7.25C5.66667 7.25 5.375 7.125 5.125 6.875C4.875 6.625 4.75 6.33333 4.75 6C4.75 5.65 4.875 5.35417 5.125 5.1125C5.375 4.87083 5.66667 4.75 6 4.75C6.35 4.75 6.64583 4.87083 6.8875 5.1125C7.12917 5.35417 7.25 5.65 7.25 6C7.25 6.33333 7.12917 6.625 6.8875 6.875C6.64583 7.125 6.35 7.25 6 7.25ZM9 19.25C8.66667 19.25 8.375 19.125 8.125 18.875C7.875 18.625 7.75 18.3333 7.75 18C7.75 17.65 7.875 17.3542 8.125 17.1125C8.375 16.8708 8.66667 16.75 9 16.75C9.35 16.75 9.64583 16.8708 9.8875 17.1125C10.1292 17.3542 10.25 17.65 10.25 18C10.25 18.3333 10.1292 18.625 9.8875 18.875C9.64583 19.125 9.35 19.25 9 19.25ZM9 11.25C8.66667 11.25 8.375 11.125 8.125 10.875C7.875 10.625 7.75 10.3333 7.75 10C7.75 9.65 7.875 9.35417 8.125 9.1125C8.375 8.87083 8.66667 8.75 9 8.75C9.35 8.75 9.64583 8.87083 9.8875 9.1125C10.1292 9.35417 10.25 9.65 10.25 10C10.25 10.3333 10.1292 10.625 9.8875 10.875C9.64583 11.125 9.35 11.25 9 11.25ZM12 15.25C11.6667 15.25 11.375 15.125 11.125 14.875C10.875 14.625 10.75 14.3333 10.75 14C10.75 13.65 10.875 13.3542 11.125 13.1125C11.375 12.8708 11.6667 12.75 12 12.75C12.35 12.75 12.6458 12.8708 12.8875 13.1125C13.1292 13.3542 13.25 13.65 13.25 14C13.25 14.3333 13.1292 14.625 12.8875 14.875C12.6458 15.125 12.35 15.25 12 15.25ZM12 7.25C11.6667 7.25 11.375 7.125 11.125 6.875C10.875 6.625 10.75 6.33333 10.75 6C10.75 5.65 10.875 5.35417 11.125 5.1125C11.375 4.87083 11.6667 4.75 12 4.75C12.35 4.75 12.6458 4.87083 12.8875 5.1125C13.1292 5.35417 13.25 5.65 13.25 6C13.25 6.33333 13.1292 6.625 12.8875 6.875C12.6458 7.125 12.35 7.25 12 7.25ZM15 19.25C14.6667 19.25 14.375 19.125 14.125 18.875C13.875 18.625 13.75 18.3333 13.75 18C13.75 17.65 13.875 17.3542 14.125 17.1125C14.375 16.8708 14.6667 16.75 15 16.75C15.35 16.75 15.6458 16.8708 15.8875 17.1125C16.1292 17.3542 16.25 17.65 16.25 18C16.25 18.3333 16.1292 18.625 15.8875 18.875C15.6458 19.125 15.35 19.25 15 19.25ZM15 11.25C14.6667 11.25 14.375 11.125 14.125 10.875C13.875 10.625 13.75 10.3333 13.75 10C13.75 9.65 13.875 9.35417 14.125 9.1125C14.375 8.87083 14.6667 8.75 15 8.75C15.35 8.75 15.6458 8.87083 15.8875 9.1125C16.1292 9.35417 16.25 9.65 16.25 10C16.25 10.3333 16.1292 10.625 15.8875 10.875C15.6458 11.125 15.35 11.25 15 11.25ZM18 15.25C17.6667 15.25 17.375 15.125 17.125 14.875C16.875 14.625 16.75 14.3333 16.75 14C16.75 13.65 16.875 13.3542 17.125 13.1125C17.375 12.8708 17.6667 12.75 18 12.75C18.35 12.75 18.6458 12.8708 18.8875 13.1125C19.1292 13.3542 19.25 13.65 19.25 14C19.25 14.3333 19.1292 14.625 18.8875 14.875C18.6458 15.125 18.35 15.25 18 15.25ZM18 7.25C17.6667 7.25 17.375 7.125 17.125 6.875C16.875 6.625 16.75 6.33333 16.75 6C16.75 5.65 16.875 5.35417 17.125 5.1125C17.375 4.87083 17.6667 4.75 18 4.75C18.35 4.75 18.6458 4.87083 18.8875 5.1125C19.1292 5.35417 19.25 5.65 19.25 6C19.25 6.33333 19.1292 6.625 18.8875 6.875C18.6458 7.125 18.35 7.25 18 7.25Z" fill="#1C1B1F"/>
</g>
</svg>
