<svg width="24" height="24" viewBox="0 0 24 24" fill="none" xmlns="http://www.w3.org/2000/svg">
<mask id="mask0_21_245" style="mask-type:alpha" maskUnits="userSpaceOnUse" x="0" y="0" width="24" height="24">
<rect width="24" height="24" fill="#D9D9D9"/>
</mask>
<g mask="url(#mask0_21_245)">
<path d="M5.6125 18.6375C5.37083 18.3958 5.25 18.1 5.25 17.75C5.25 17.4 5.37083 17.1042 5.6125 16.8625C5.85417 16.6208 6.15 16.5 6.5 16.5C6.85 16.5 7.14583 16.6208 7.3875 16.8625C7.62917 17.1042 7.75 17.4 7.75 17.75C7.75 18.1 7.62917 18.3958 7.3875 18.6375C7.14583 18.8792 6.85 19 6.5 19C6.15 19 5.85417 18.8792 5.6125 18.6375ZM8.6125 21.6375C8.37083 21.3958 8.25 21.1 8.25 20.75C8.25 20.4 8.37083 20.1042 8.6125 19.8625C8.85417 19.6208 9.15 19.5 9.5 19.5C9.85 19.5 10.1458 19.6208 10.3875 19.8625C10.6292 20.1042 10.75 20.4 10.75 20.75C10.75 21.1 10.6292 21.3958 10.3875 21.6375C10.1458 21.8792 9.85 22 9.5 22C9.15 22 8.85417 21.8792 8.6125 21.6375ZM11.6125 18.6375C11.3708 18.3958 11.25 18.1 11.25 17.75C11.25 17.4 11.3708 17.1042 11.6125 16.8625C11.8542 16.6208 12.15 16.5 12.5 16.5C12.85 16.5 13.1458 16.6208 13.3875 16.8625C13.6292 17.1042 13.75 17.4 13.75 17.75C13.75 18.1 13.6292 18.3958 13.3875 18.6375C13.1458 18.8792 12.85 19 12.5 19C12.15 19 11.8542 18.8792 11.6125 18.6375ZM17.6125 18.6375C17.3708 18.3958 17.25 18.1 17.25 17.75C17.25 17.4 17.3708 17.1042 17.6125 16.8625C17.8542 16.6208 18.15 16.5 18.5 16.5C18.85 16.5 19.1458 16.6208 19.3875 16.8625C19.6292 17.1042 19.75 17.4 19.75 17.75C19.75 18.1 19.6292 18.3958 19.3875 18.6375C19.1458 18.8792 18.85 19 18.5 19C18.15 19 17.8542 18.8792 17.6125 18.6375ZM14.6125 21.6375C14.3708 21.3958 14.25 21.1 14.25 20.75C14.25 20.4 14.3708 20.1042 14.6125 19.8625C14.8542 19.6208 15.15 19.5 15.5 19.5C15.85 19.5 16.1458 19.6208 16.3875 19.8625C16.6292 20.1042 16.75 20.4 16.75 20.75C16.75 21.1 16.6292 21.3958 16.3875 21.6375C16.1458 21.8792 15.85 22 15.5 22C15.15 22 14.8542 21.8792 14.6125 21.6375ZM7.5 15C5.98333 15 4.6875 14.4625 3.6125 13.3875C2.5375 12.3125 2 11.0167 2 9.5C2 8.11667 2.45833 6.90833 3.375 5.875C4.29167 4.84167 5.425 4.23333 6.775 4.05C7.30833 3.1 8.0375 2.35417 8.9625 1.8125C9.8875 1.27083 10.9 1 12 1C13.5 1 14.8042 1.47917 15.9125 2.4375C17.0208 3.39583 17.6917 4.59167 17.925 6.025C19.075 6.125 20.0417 6.6 20.825 7.45C21.6083 8.3 22 9.31667 22 10.5C22 11.75 21.5625 12.8125 20.6875 13.6875C19.8125 14.5625 18.75 15 17.5 15H7.5ZM7.5 13H17.5C18.2 13 18.7917 12.7583 19.275 12.275C19.7583 11.7917 20 11.2 20 10.5C20 9.8 19.7583 9.20833 19.275 8.725C18.7917 8.24167 18.2 8 17.5 8H16V7C16 5.9 15.6083 4.95833 14.825 4.175C14.0417 3.39167 13.1 3 12 3C11.2 3 10.4708 3.21667 9.8125 3.65C9.15417 4.08333 8.65833 4.66667 8.325 5.4L8.075 6H7.45C6.5 6.03333 5.6875 6.3875 5.0125 7.0625C4.3375 7.7375 4 8.55 4 9.5C4 10.4667 4.34167 11.2917 5.025 11.975C5.70833 12.6583 6.53333 13 7.5 13Z" fill="#1C1B1F"/>
</g>
</svg>
