<svg width="24" height="24" viewBox="0 0 24 24" fill="none" xmlns="http://www.w3.org/2000/svg">
<mask id="mask0_21_251" style="mask-type:alpha" maskUnits="userSpaceOnUse" x="0" y="0" width="24" height="24">
<rect width="24" height="24" fill="#D9D9D9"/>
</mask>
<g mask="url(#mask0_21_251)">
<path d="M10 23C10 22.45 10.1958 21.9792 10.5875 21.5875C10.9792 21.1958 11.45 21 12 21V15.8C11.8 15.7167 11.6125 15.6208 11.4375 15.5125C11.2625 15.4042 11.1 15.2833 10.95 15.15L8.75 16.55C8.51667 16.6833 8.2625 16.7708 7.9875 16.8125C7.7125 16.8542 7.43333 16.8333 7.15 16.75L2.65 15.475C2.16667 15.3417 1.77083 15.0708 1.4625 14.6625C1.15417 14.2542 1 13.7917 1 13.275C1 12.6417 1.22083 12.1042 1.6625 11.6625C2.10417 11.2208 2.64167 11 3.275 11H10.8C10.9667 10.8167 11.15 10.6583 11.35 10.525C11.55 10.3917 11.7667 10.2833 12 10.2V6.775C12 6.49167 12.0542 6.225 12.1625 5.975C12.2708 5.725 12.425 5.50833 12.625 5.325L16.05 2.125C16.4333 1.75833 16.8792 1.55 17.3875 1.5C17.8958 1.45 18.3667 1.55833 18.8 1.825C19.3333 2.15833 19.6792 2.62917 19.8375 3.2375C19.9958 3.84583 19.9083 4.41667 19.575 4.95L15.6 11.525C15.7167 11.725 15.8042 11.9417 15.8625 12.175C15.9208 12.4083 15.9583 12.65 15.975 12.9L18.675 13.55C18.9417 13.6167 19.1833 13.7333 19.4 13.9C19.6167 14.0667 19.7917 14.2667 19.925 14.5L22.2 18.6C22.45 19.05 22.5417 19.525 22.475 20.025C22.4083 20.525 22.1917 20.9583 21.825 21.325C21.375 21.775 20.8375 22 20.2125 22C19.5875 22 19.05 21.775 18.6 21.325L14 16.725V21C14.55 21 15.0208 21.1958 15.4125 21.5875C15.8042 21.9792 16 22.45 16 23H10ZM5 5C4.71667 5 4.47917 4.90417 4.2875 4.7125C4.09583 4.52083 4 4.28333 4 4C4 3.71667 4.09583 3.47917 4.2875 3.2875C4.47917 3.09583 4.71667 3 5 3H9C9.28333 3 9.52083 3.09583 9.7125 3.2875C9.90417 3.47917 10 3.71667 10 4C10 4.28333 9.90417 4.52083 9.7125 4.7125C9.52083 4.90417 9.28333 5 9 5H5ZM14 6.775V10.2C14.0167 10.2 14.0292 10.2042 14.0375 10.2125C14.0458 10.2208 14.0583 10.225 14.075 10.225L17.875 3.9C17.9083 3.83333 17.9167 3.7625 17.9 3.6875C17.8833 3.6125 17.8417 3.55833 17.775 3.525C17.725 3.49167 17.6625 3.48333 17.5875 3.5C17.5125 3.51667 17.4583 3.54167 17.425 3.575L14 6.775ZM2 9C1.71667 9 1.47917 8.90417 1.2875 8.7125C1.09583 8.52083 1 8.28333 1 8C1 7.71667 1.09583 7.47917 1.2875 7.2875C1.47917 7.09583 1.71667 7 2 7H5C5.28333 7 5.52083 7.09583 5.7125 7.2875C5.90417 7.47917 6 7.71667 6 8C6 8.28333 5.90417 8.52083 5.7125 8.7125C5.52083 8.90417 5.28333 9 5 9H2ZM13 14C13.2833 14 13.5208 13.9042 13.7125 13.7125C13.9042 13.5208 14 13.2833 14 13C14 12.7167 13.9042 12.4792 13.7125 12.2875C13.5208 12.0958 13.2833 12 13 12C12.7167 12 12.4792 12.0958 12.2875 12.2875C12.0958 12.4792 12 12.7167 12 13C12 13.2833 12.0958 13.5208 12.2875 13.7125C12.4792 13.9042 12.7167 14 13 14ZM7.725 14.85L10.05 13.45C10.0333 13.3667 10.025 13.2917 10.025 13.225V13H3.275C3.19167 13 3.125 13.025 3.075 13.075C3.025 13.125 3 13.1917 3 13.275C3 13.3417 3.01667 13.4 3.05 13.45C3.08333 13.5 3.13333 13.5333 3.2 13.55L7.725 14.85ZM18.2 15.475L15.35 14.825C15.3167 14.8583 15.2833 14.9 15.25 14.95C15.2167 15 15.1833 15.0417 15.15 15.075L20.025 19.925C20.075 19.975 20.1417 20 20.225 20C20.3083 20 20.375 19.975 20.425 19.925C20.475 19.875 20.5042 19.8208 20.5125 19.7625C20.5208 19.7042 20.5083 19.6417 20.475 19.575L18.2 15.475ZM4 21C3.71667 21 3.47917 20.9042 3.2875 20.7125C3.09583 20.5208 3 20.2833 3 20C3 19.7167 3.09583 19.4792 3.2875 19.2875C3.47917 19.0958 3.71667 19 4 19H7C7.28333 19 7.52083 19.0958 7.7125 19.2875C7.90417 19.4792 8 19.7167 8 20C8 20.2833 7.90417 20.5208 7.7125 20.7125C7.52083 20.9042 7.28333 21 7 21H4Z" fill="#1C1B1F"/>
</g>
</svg>
