<?xml version="1.0" encoding="utf-8"?>
<!-- Generator: Adobe Illustrator 25.4.1, SVG Export Plug-In . SVG Version: 6.00 Build 0)  -->
<svg version="1.1" id="Layer_1" xmlns="http://www.w3.org/2000/svg" xmlns:xlink="http://www.w3.org/1999/xlink" x="0px" y="0px"
	 viewBox="0 0 100 100" style="enable-background:new 0 0 100 100;" xml:space="preserve">
<style type="text/css">
	.st0{fill:#FFFFFF;}
</style>
<path class="st0" d="M50.5,78.5c-15.6,0-28.3-12.7-28.3-28.3c0-15.6,12.7-28.3,28.3-28.3c15.6,0,28.3,12.7,28.3,28.3
	C78.9,65.8,66.2,78.5,50.5,78.5z M50.5,24.7c-14,0-25.4,11.4-25.4,25.4s11.4,25.4,25.4,25.4S76,64.2,76,50.2S64.6,24.7,50.5,24.7z"
	/>
<path class="st0" d="M50.5,17.7c-0.8,0-1.5-0.7-1.5-1.5V6.5c0-0.8,0.7-1.5,1.5-1.5c0.8,0,1.5,0.7,1.5,1.5v9.7
	C52,17.1,51.3,17.7,50.5,17.7z"/>
<path class="st0" d="M50.5,94.9c-0.8,0-1.5-0.7-1.5-1.5v-9.7c0-0.8,0.7-1.5,1.5-1.5c0.8,0,1.5,0.7,1.5,1.5v9.7
	C52,94.3,51.3,94.9,50.5,94.9z"/>
<path class="st0" d="M93,51h-9.7c-0.8,0-1.5-0.7-1.5-1.5s0.7-1.5,1.5-1.5H93c0.8,0,1.5,0.7,1.5,1.5S93.8,51,93,51z"/>
<path class="st0" d="M16.7,51H7c-0.8,0-1.5-0.7-1.5-1.5s0.7-1.5,1.5-1.5h9.7c0.8,0,1.5,0.7,1.5,1.5S17.5,51,16.7,51z"/>
<path class="st0" d="M23.4,24.6c-0.4,0-0.7-0.1-1-0.4l-6.9-6.9c-0.6-0.6-0.6-1.5,0-2.1c0.6-0.6,1.5-0.6,2.1,0l6.9,6.9
	c0.6,0.6,0.6,1.5,0,2.1C24.2,24.5,23.8,24.6,23.4,24.6z"/>
<path class="st0" d="M77,24.6c-0.4,0-0.7-0.1-1-0.4c-0.6-0.6-0.6-1.5,0-2.1l6.9-6.9c0.6-0.6,1.5-0.6,2.1,0c0.6,0.6,0.6,1.5,0,2.1
	L78,24.2C77.7,24.5,77.4,24.6,77,24.6z"/>
<path class="st0" d="M17.7,84.2c-0.4,0-0.7-0.1-1-0.4c-0.6-0.6-0.6-1.5,0-2.1l6.9-6.9c0.6-0.6,1.5-0.6,2.1,0c0.6,0.6,0.6,1.5,0,2.1
	l-6.9,6.9C18.4,84,18,84.2,17.7,84.2z"/>
<path class="st0" d="M83.9,85.2c-0.4,0-0.7-0.1-1-0.4L76,77.9c-0.6-0.6-0.6-1.5,0-2.1c0.6-0.6,1.5-0.6,2.1,0l6.9,6.9
	c0.6,0.6,0.6,1.5,0,2.1C84.6,85.1,84.3,85.2,83.9,85.2z"/>
</svg>
