<?xml version="1.0" encoding="utf-8"?>
<!-- Generator: Adobe Illustrator 25.4.1, SVG Export Plug-In . SVG Version: 6.00 Build 0)  -->
<svg version="1.1" id="Layer_1" xmlns="http://www.w3.org/2000/svg" xmlns:xlink="http://www.w3.org/1999/xlink" x="0px" y="0px"
	 viewBox="0 0 100 100" style="enable-background:new 0 0 100 100;" xml:space="preserve">
<style type="text/css">
	.st0{fill:#FFFFFF;}
</style>
<g>
	<path class="st0" d="M53.1,94.1c-24.6,0-44.6-20-44.6-44.6C8.5,24.3,25.9,6,49.8,6c5.5,0,7.9,0.6,8.7,2.4c1,2.1-0.9,4.2-3.7,7.5
		c-5.9,6.9-15.8,18.5-7.8,36.9c4,9.2,11.6,13.6,23.4,13.6c4.5,0,8.6-0.6,12-1.1c2.2-0.3,3.9-0.6,5.1-0.6c0.5,0,2,0,2.7,1.1
		c0.2,0.3,0.6,1.1,0.2,2.1C83.7,84.8,70.5,94.1,53.1,94.1z M49.8,9.1c-22.5,0-38.1,16.6-38.1,40.4C11.6,72.4,30.2,91,53.1,91
		C73,91,82.5,78.6,87,67.8c-1,0.1-2.6,0.3-4.3,0.5c-3.3,0.5-7.8,1.1-12.4,1.1l0,0c-12.9,0-21.7-5.2-26.2-15.5
		c-8.8-20.2,2.3-33.2,8.3-40.2c1.3-1.5,2.9-3.4,3.2-4.2C55.2,9.5,53.9,9.1,49.8,9.1z"/>
</g>
</svg>
