<?xml version="1.0" encoding="utf-8"?>
<!-- Generator: Adobe Illustrator 25.4.1, SVG Export Plug-In . SVG Version: 6.00 Build 0)  -->
<svg version="1.1" id="Layer_1" xmlns="http://www.w3.org/2000/svg" xmlns:xlink="http://www.w3.org/1999/xlink" x="0px" y="0px"
	 viewBox="0 0 100 100" style="enable-background:new 0 0 100 100;" xml:space="preserve">
<style type="text/css">
	.st0{fill:#FFFFFF;}
</style>
<path class="st0" d="M62.5,28.7c-11.2,0-20.4,8.8-20.9,19.9c-0.2,0.2-0.5,0.5-0.7,0.7c-0.7-1-1.6-1.9-2.7-2.7
	c-3.1-2.2-5.1-2.3-8.7-2.1c-3.6,0.3-7.7,3.8-9,6.2c-1.3-0.2-3.5-0.3-5.5,1c-2.5,1.6-3.1,4.5-3.2,6c-2.6,0.8-6.3,3.1-6.6,7.5
	c-0.3,3.6,0.9,5.7,2,6.8c1,1.1,2.4,1.8,3.7,1.8c0,0,0,0,0,0h8.5c0.4,2.6,1.4,4.2,2.4,5.3c1.3,1.4,3,2.2,4.7,2.2l44.7,0
	c0,0,0.1,0,0.3,0c1.4,0,8.4-0.4,10-8.2c0.3-1.3,1.1-6.7-2.1-10.8c2.8-3.7,4.2-8,4.2-12.6C83.5,38.1,74,28.7,62.5,28.7z M62.5,31.3
	c10.1,0,18.4,8.2,18.4,18.4c0,3.9-1.2,7.6-3.5,10.7c-0.6-0.5-1.4-1-2.2-1.4c-2.9-1.5-5.4-1.7-6.9-1.6c0-2.6-0.7-7.7-6-11.4
	c-2.8-2-5.1-2.8-8.2-2.8c-1,0-2.1,0.1-3.1,0.2c-2.2,0.2-4.6,1.3-6.6,2.8C46.1,37.7,53.6,31.3,62.5,31.3z M19.2,70.4
	c0,0.3,0,0.6,0,0.9h-8.3c0,0,0,0,0,0c-0.4,0-1.2-0.2-1.8-0.9c-0.7-0.7-1.5-2.2-1.3-4.9c0.3-4.4,5.3-5.4,5.6-5.4l1.1-0.2l-0.1-1.2
	c0,0-0.2-3.3,2-4.8c1.8-1.1,4.3-0.4,4.3-0.4l0.8,0.2l0.5-0.7c0.1-0.1,0.4-0.5,0.6-0.9c0.8-1.6,4.3-4.8,7-5c3.2-0.3,4.5-0.2,7,1.6
	c1.1,0.8,2,1.7,2.5,2.8c-0.6-0.1-1.3-0.2-2.1-0.2c-2,0-3.6,0.5-5,1.3c-3.4,2.2-4,6-4.1,8C24.6,61.6,19.6,64.5,19.2,70.4z M78.7,72.6
	c-1.1,5.7-6,6.1-7.4,6.1l-45,0c-0.7,0-1.8-0.4-2.8-1.4c-1-1-2-3-1.8-6.8c0.4-6.2,7.4-7.5,7.7-7.6l1.2-0.2l-0.1-1.2
	c0,0-0.3-4.6,2.9-6.7c1-0.6,2.2-0.9,3.6-0.9c1.4,0,2.4,0.3,2.4,0.3l0.8,0.2l0.5-0.7c0-0.1,0.5-0.6,0.7-1.1c1.1-2.2,5.9-6.6,9.7-6.9
	c0.9-0.1,1.9-0.1,2.8-0.1c2.2,0,4,0.4,6.7,2.3c5.9,4.2,4.8,10.3,4.8,10.6l-0.4,2.1l2-0.5c0,0,2.8-0.8,6.8,1.2
	C80.1,64.3,79,71.2,78.7,72.6z"/>
<path class="st0" d="M62.5,26.2c0.7,0,1.3-0.6,1.3-1.3v-7.1c0-0.7-0.6-1.3-1.3-1.3c-0.7,0-1.3,0.6-1.3,1.3v7.1
	C61.2,25.6,61.7,26.2,62.5,26.2z"/>
<path class="st0" d="M93.6,47.9h-7.1c-0.7,0-1.3,0.6-1.3,1.3s0.6,1.3,1.3,1.3h7.1c0.7,0,1.3-0.6,1.3-1.3S94.3,47.9,93.6,47.9z"/>
<path class="st0" d="M41.7,30.8c0.3,0.3,0.6,0.4,0.9,0.4s0.7-0.1,0.9-0.4c0.5-0.5,0.5-1.3,0-1.8l-5-5c-0.5-0.5-1.3-0.5-1.8,0
	c-0.5,0.5-0.5,1.3,0,1.8L41.7,30.8z"/>
<path class="st0" d="M81.8,31.2c0.3,0,0.7-0.1,0.9-0.4l5-5c0.5-0.5,0.5-1.3,0-1.8c-0.5-0.5-1.3-0.5-1.8,0l-5,5
	c-0.5,0.5-0.5,1.3,0,1.8C81.2,31.1,81.5,31.2,81.8,31.2z"/>
</svg>
