<?xml version="1.0" encoding="utf-8"?>
<!-- Generator: Adobe Illustrator 25.4.1, SVG Export Plug-In . SVG Version: 6.00 Build 0)  -->
<svg version="1.1" id="Layer_1" xmlns="http://www.w3.org/2000/svg" xmlns:xlink="http://www.w3.org/1999/xlink" x="0px" y="0px"
	 viewBox="0 0 100 100" style="enable-background:new 0 0 100 100;" xml:space="preserve">
<style type="text/css">
	.st0{fill:#FFFFFF;}
</style>
<g>
	<path class="st0" d="M80.4,77c-0.2,0-0.4,0-0.4,0H14.7c-2.2,0-4.6-1.1-6.4-3.1c-1.8-2-3.9-5.7-3.5-12.3c0.7-9.5,9.6-12.9,12.8-13.8
		c0.1-2.5,0.7-8.4,5.7-11.6c1.9-1.2,4.3-1.9,7-1.9c1.5,0,2.7,0.2,3.5,0.3c0.1-0.1,0.1-0.2,0.2-0.3c2.2-4.3,10-11.2,16.8-11.8
		c1.4-0.1,3-0.2,4.4-0.2c4.4,0,7.6,1.1,11.6,4c7.9,5.7,8.6,13.4,8.5,16.8c0.4,0,0.8,0,1.2,0c2.1,0,5.3,0.4,9.1,2.3
		c11,5.5,9.1,17.7,8.6,20.1C92.2,76.5,82.3,77,80.4,77z M30.4,37.1c-2.2,0-4.1,0.5-5.6,1.4c-5,3.2-4.5,10.2-4.5,10.3l0.1,1.2
		l-1.2,0.2c-0.5,0.1-11.1,2.2-11.7,11.6c-0.4,5.6,1.3,8.7,2.7,10.3c1.5,1.6,3.3,2.2,4.4,2.2l65.7,0c1.6,0,9.6-0.5,11.4-9.4
		c0.4-2.1,2-12.6-7.2-17.2c-3.3-1.6-6.1-2-7.9-2c-1.5,0-2.4,0.2-2.4,0.2l-2.1,0.6l0.4-2.1c0.1-0.4,1.7-9.6-7.2-16
		c-4-2.9-6.8-3.5-10.1-3.5c-1.3,0-2.8,0.1-4.2,0.2c-5.6,0.5-12.7,6.6-14.6,10.3c-0.3,0.7-0.9,1.4-1,1.5L35,37.8l-0.9-0.2
		C34.1,37.5,32.5,37.1,30.4,37.1z"/>
</g>
</svg>
