<?xml version="1.0" encoding="utf-8"?>
<!-- Generator: Adobe Illustrator 25.4.1, SVG Export Plug-In . SVG Version: 6.00 Build 0)  -->
<svg version="1.1" id="Layer_1" xmlns="http://www.w3.org/2000/svg" xmlns:xlink="http://www.w3.org/1999/xlink" x="0px" y="0px"
	 viewBox="0 0 100 100" style="enable-background:new 0 0 100 100;" xml:space="preserve">
<style type="text/css">
	.st0{fill:#FFFFFF;}
</style>
<path class="st0" d="M87.8,47.1c-3.6-1.8-6.5-1.9-8.2-1.8c0.1-2.9-0.6-9-6.9-13.5c-3.3-2.4-5.9-3.2-9.5-3.2c-1.2,0-2.4,0.1-3.6,0.2
	c-4.4,0.4-9.3,4-12.1,7.3c-0.9-1.3-1.9-2.4-3.3-3.4c-3.6-2.6-5.9-2.7-10-2.4c-4.2,0.3-9.1,4.6-10.5,7.3c-1.4-0.2-4.1-0.4-6.4,1.1
	c-3,1.9-3.6,5.3-3.7,7.1c-3,0.9-7.4,3.5-7.8,8.7c-0.3,4.2,1,6.6,2.2,7.8c1.2,1.3,2.7,2,4.2,2c0,0,0,0,0,0h10.2
	c0.4,3.1,1.6,5.1,2.7,6.3c1.5,1.6,3.5,2.5,5.3,2.5l52.6,0c0,0,0.1,0,0.3,0c1.6,0,9.7-0.5,11.5-9.4C95.3,61.5,96.8,51.6,87.8,47.1z
	 M12.3,61.6C12.3,61.6,12.3,61.6,12.3,61.6c-0.6,0-1.5-0.3-2.3-1.2c-0.8-0.9-1.8-2.6-1.6-5.9c0.4-5.4,6.5-6.6,6.7-6.6l1.1-0.2
	l-0.1-1.2c0,0-0.3-4,2.5-5.8c2.2-1.4,5.2-0.6,5.3-0.5l0.8,0.2l0.5-0.7c0.1-0.1,0.4-0.5,0.6-1c1-2,5.1-5.8,8.5-6
	c3.7-0.3,5.4-0.2,8.4,1.9c1.4,1,2.5,2.2,3.2,3.7c0,0,0,0,0,0c0,0,0,0.1-0.1,0.1c-0.7-0.1-1.6-0.3-2.7-0.3c-2.2,0-4.2,0.5-5.8,1.5
	c-4,2.6-4.6,7.2-4.7,9.3c-3.9,1-9.8,4.4-10.3,11.3c0,0.4,0,0.8,0,1.3L12.3,61.6L12.3,61.6z M92.4,63c-1.4,6.9-7.2,7.4-9,7.4l-52.9,0
	c-0.9,0-2.2-0.4-3.4-1.7c-1.2-1.2-2.5-3.7-2.2-8.1c0.5-7.4,8.9-9.1,9.3-9.2l1.1-0.2L35.2,50c0-0.1-0.4-5.6,3.5-8.1
	c1.2-0.8,2.6-1.1,4.4-1.1c1.7,0,2.9,0.4,2.9,0.4l0.8,0.2l0.5-0.7c0.1-0.1,0.5-0.7,0.8-1.2c1.3-2.6,6.9-7.8,11.6-8.2
	c1.1-0.1,2.3-0.2,3.4-0.2c2.6,0,4.8,0.5,8,2.8c7.1,5.1,5.8,12.4,5.7,12.7l-0.4,2l2-0.5c0,0,3.4-1,8.1,1.4C94,53,92.7,61.3,92.4,63z"
	/>
</svg>
