<?xml version="1.0" encoding="utf-8"?>
<!-- Generator: Adobe Illustrator 25.4.1, SVG Export Plug-In . SVG Version: 6.00 Build 0)  -->
<svg version="1.1" id="Layer_1" xmlns="http://www.w3.org/2000/svg" xmlns:xlink="http://www.w3.org/1999/xlink" x="0px" y="0px"
	 viewBox="0 0 100 100" style="enable-background:new 0 0 100 100;" xml:space="preserve">
<style type="text/css">
	.st0{fill:#FFFFFF;}
</style>
<path class="st0" d="M79.9,63c-0.2,0-0.3,0-0.3,0l-3.9,0c-0.8,0-1.5-0.7-1.5-1.5c0-0.8,0.7-1.5,1.5-1.5h4c0.5,0,9.5,0.4,11.4-9.2
	c0.4-2,2-12.4-7.1-16.9C78.3,31,74,32.2,74,32.2c-0.5,0.1-1,0-1.4-0.3c-0.4-0.3-0.5-0.9-0.4-1.4c0.1-0.4,1.7-9.4-7.1-15.7
	c-5-3.6-7.8-3.7-14.1-3.2c-5.5,0.4-12.5,6.5-14.4,10.2c-0.4,0.7-0.9,1.4-1,1.5c-0.4,0.5-1,0.7-1.5,0.5c0,0-5.3-1.5-9.1,1
	c-4.9,3.2-4.4,10-4.4,10.1c0.1,0.7-0.5,1.4-1.2,1.6c-0.4,0.1-10.9,2.1-11.5,11.4c-0.4,5.6,1.2,8.6,2.7,10.1c1.5,1.6,3.2,2.1,4.3,2.1
	c0,0,0,0,0,0h4.5c0.8,0,1.5,0.7,1.5,1.5c0,0.8-0.7,1.5-1.5,1.5h-4.5c0,0,0,0,0,0c-2.2,0-4.6-1.1-6.4-3.1c-1.8-2-3.9-5.7-3.5-12.3
	c0.7-9.4,9.4-12.8,12.7-13.8c0.1-2.5,0.8-8.3,5.7-11.5c3.8-2.5,8.4-1.9,10.5-1.6c0.1-0.1,0.1-0.2,0.1-0.3c2.2-4.3,10-11.2,16.7-11.8
	c6.6-0.5,10.3-0.3,16,3.7c7.8,5.6,8.6,13.1,8.5,16.7c2.2-0.2,5.8,0.1,10.2,2.2c11,5.5,9.1,17.7,8.7,20.1C91.9,62.5,81.7,63,79.9,63z
	"/>
<path class="st0" d="M21,73.2c-0.2,0-0.4,0-0.6-0.1c-0.7-0.3-1-1.2-0.7-1.9l6.2-13.2c0.3-0.7,1.2-1,2-0.7c0.7,0.3,1,1.2,0.7,1.9
	l-6.2,13.2C22.1,72.9,21.5,73.2,21,73.2z"/>
<path class="st0" d="M30,84.2c-0.2,0-0.4,0-0.6-0.1c-0.7-0.3-1-1.2-0.7-2L40,57.9c0.3-0.7,1.2-1,2-0.7c0.7,0.3,1,1.2,0.7,2
	L31.3,83.3C31,83.9,30.5,84.2,30,84.2z"/>
<path class="st0" d="M41.4,91.9c-0.2,0-0.4,0-0.6-0.1c-0.7-0.3-1-1.2-0.7-2l15-31.9c0.3-0.7,1.2-1,2-0.7c0.7,0.3,1,1.2,0.7,2
	L42.7,91C42.4,91.6,41.9,91.9,41.4,91.9z"/>
<path class="st0" d="M62,81.2c-0.2,0-0.4,0-0.6-0.1c-0.7-0.3-1.1-1.2-0.8-1.9L70,58c0.3-0.7,1.2-1.1,1.9-0.8
	c0.7,0.3,1.1,1.2,0.8,1.9l-9.3,21.2C63.1,80.9,62.6,81.2,62,81.2z"/>
</svg>
