<?xml version="1.0" encoding="utf-8"?>
<!-- Generator: Adobe Illustrator 25.4.1, SVG Export Plug-In . SVG Version: 6.00 Build 0)  -->
<svg version="1.1" id="Layer_1" xmlns="http://www.w3.org/2000/svg" xmlns:xlink="http://www.w3.org/1999/xlink" x="0px" y="0px"
	 viewBox="0 0 100 100" style="enable-background:new 0 0 100 100;" xml:space="preserve">
<style type="text/css">
	.st0{fill:#FFFFFF;}
</style>
<path class="st0" d="M89.2,43.2c-2.4-1.2-4.4-1.4-5.8-1.4c0-2.3-0.7-6.6-5.2-9.8c-3-2.2-5.1-2.5-8.2-2.4
	c-2.8-9.4-11.4-15.9-21.3-15.9c-2.8,0-5.4,0.5-7.9,1.5c-0.8-1.4-1.9-2.7-3.3-3.7c-3.1-2.2-5-2.3-8.5-2c-3.5,0.3-7.5,3.7-8.9,6.1
	c-1.3-0.2-3.5-0.3-5.3,0.9c-2.5,1.6-3,4.4-3.2,5.9c-2.6,0.8-6.2,3-6.5,7.4c-0.3,3.6,0.9,5.6,1.9,6.7c1,1.1,2.4,1.7,3.7,1.7
	c0,0,0,0,0,0h15.9c0.9,8.4,6.4,15.6,14.5,18.5c0.5,2.2,1.4,3.6,2.4,4.4c0.5,0.5,1.4,0.4,1.9-0.1c0.5-0.5,0.4-1.4-0.1-1.9
	c-0.9-0.8-2-2.5-1.7-5.9c0.4-5.1,6.2-6.3,6.5-6.3c0.7-0.1,1.1-0.7,1.1-1.4c0,0-0.3-3.8,2.4-5.6c2.1-1.3,5-0.5,5-0.5
	c0.5,0.1,1.1,0,1.4-0.4c0.1-0.1,0.4-0.5,0.6-1c0.9-1.9,4.9-5.5,8.1-5.8c3.6-0.3,5.2-0.2,8,1.8c4.9,3.5,4.1,8.6,4,8.9
	c-0.1,0.4,0.1,0.9,0.4,1.2c0.3,0.3,0.8,0.4,1.2,0.3c0.1,0,2.4-0.6,5.7,1c5.1,2.5,4.2,8.4,4,9.5c-1,5.2-5.7,5.1-6.3,5.1H70.8
	c-0.7,0-1.3,0.6-1.3,1.3c0,0.7,0.6,1.3,1.3,1.3h14.8c0.1,0,0.2,0,0.4,0c2.7,0,7.4-1.5,8.6-7.2C95.4,51.3,94.5,45.8,89.2,43.2z
	 M10.8,35.6L10.8,35.6c-0.4,0-1.1-0.2-1.8-0.9c-0.7-0.7-1.4-2.1-1.2-4.7c0.3-4.3,5.2-5.2,5.4-5.3l1.2-0.2l-0.1-1.2
	c0,0-0.2-3.2,2-4.6c1.7-1.1,4.2-0.4,4.2-0.4l0.8,0.2l0.5-0.7c0.1-0.1,0.4-0.5,0.6-0.9c0.8-1.6,4.2-4.7,6.9-4.9
	c3.1-0.2,4.4-0.2,6.8,1.5c1,0.8,1.9,1.6,2.4,2.7c-7,3.7-11.8,10.9-11.9,19.3L10.8,35.6L10.8,35.6z M58.3,36.8c-1.4-0.2-4-0.4-6.2,1
	c-2.9,1.9-3.5,5.1-3.6,6.8c-2.9,0.9-7.2,3.4-7.5,8.5c0,0.2,0,0.5,0,0.7c-7.1-3.1-11.8-10-11.8-17.9c0-10.8,8.8-19.6,19.6-19.6
	c8.6,0,16.1,5.5,18.6,13.6C63.6,30.8,59.6,34.4,58.3,36.8z"/>
<path class="st0" d="M37.2,61.5c-0.7-0.3-1.4,0-1.7,0.6l-5.4,11.6c-0.3,0.7,0,1.4,0.6,1.7c0.2,0.1,0.4,0.1,0.6,0.1
	c0.5,0,1-0.3,1.2-0.8l5.4-11.6C38.2,62.5,37.9,61.8,37.2,61.5z"/>
<path class="st0" d="M52.4,55.2c-0.7-0.3-1.4,0-1.7,0.6L38,83.3c-0.3,0.7,0,1.4,0.6,1.7c0.2,0.1,0.4,0.1,0.5,0.1
	c0.5,0,1-0.3,1.2-0.8L53,56.9C53.3,56.3,53.1,55.5,52.4,55.2z"/>
<path class="st0" d="M65.8,55.6c-0.7-0.3-1.4,0-1.7,0.6L48,90c-0.3,0.7,0,1.4,0.6,1.7c0.2,0.1,0.4,0.1,0.6,0.1c0.5,0,1-0.3,1.2-0.8
	l16.1-33.8C66.7,56.7,66.4,55.9,65.8,55.6z"/>
<path class="st0" d="M74.4,65.1c-0.7-0.3-1.4,0-1.7,0.7l-6.6,15c-0.3,0.7,0,1.4,0.7,1.7c0.2,0.1,0.4,0.1,0.5,0.1
	c0.5,0,1-0.3,1.2-0.8l6.6-15C75.4,66.1,75.1,65.4,74.4,65.1z"/>
</svg>
