<?xml version="1.0" encoding="utf-8"?>
<!-- Generator: Adobe Illustrator 25.4.1, SVG Export Plug-In . SVG Version: 6.00 Build 0)  -->
<svg version="1.1" id="Layer_1" xmlns="http://www.w3.org/2000/svg" xmlns:xlink="http://www.w3.org/1999/xlink" x="0px" y="0px"
	 viewBox="0 0 100 100" style="enable-background:new 0 0 100 100;" xml:space="preserve">
<style type="text/css">
	.st0{fill:#FFFFFF;}
</style>
<path class="st0" d="M66.9,66.6c-0.5,0-1-0.3-1.2-0.8c-0.3-0.7,0-1.5,0.6-1.8c5.6-2.6,9.8-7.2,12.6-13.8c-0.8,0.1-1.8,0.2-2.7,0.4
	c-7.2,1.1-22.1,3.3-28.1-10.5c-6.4-14.7,1.7-24.1,6-29.2c0.8-1,1.8-2.1,2.1-2.7c-0.4-0.1-1.4-0.3-3.9-0.3c-16,0-27.2,11.9-27.2,28.9
	c0,10.5,5.6,20.2,14.6,25.6c0.6,0.4,0.9,1.2,0.5,1.8c-0.4,0.6-1.2,0.9-1.8,0.5c-9.8-5.8-15.9-16.5-15.9-27.9
	c0-18.3,12.6-31.5,29.9-31.5c3.5,0,5.7,0.3,6.5,1.9c0.8,1.6-0.6,3.2-2.7,5.7C52,17.7,45,26,50.7,39.1C55.8,51,68.9,49,75.9,48
	c3.4-0.5,4.9-0.7,5.8,0.4c0.2,0.2,0.6,0.9,0.2,1.9c-3,7.7-8,13.3-14.4,16.3C67.3,66.6,67.1,66.6,66.9,66.6z"/>
<path class="st0" d="M29.6,79.9c-0.2,0-0.4,0-0.6-0.1c-0.7-0.3-1-1.1-0.7-1.8l4.9-10.6c0.3-0.7,1.1-1,1.8-0.7c0.7,0.3,1,1.1,0.7,1.8
	l-4.9,10.6C30.6,79.6,30.1,79.9,29.6,79.9z"/>
<path class="st0" d="M36.8,88.7c-0.2,0-0.4,0-0.6-0.1c-0.7-0.3-0.9-1.1-0.6-1.8L48.3,61c0.3-0.7,1.1-0.9,1.8-0.6
	c0.7,0.3,0.9,1.1,0.6,1.8L38,87.9C37.7,88.4,37.3,88.7,36.8,88.7z"/>
<path class="st0" d="M45.9,94.8c-0.2,0-0.4,0-0.6-0.1c-0.7-0.3-0.9-1.1-0.6-1.8l16.5-32.7c0.3-0.7,1.1-0.9,1.8-0.6s0.9,1.1,0.6,1.8
	L47.1,94.1C46.9,94.5,46.4,94.8,45.9,94.8z"/>
<path class="st0" d="M62.4,88.1c-0.2,0-0.4,0-0.5-0.1c-0.7-0.3-1-1.1-0.7-1.8l7.5-17c0.3-0.7,1.1-1,1.8-0.7c0.7,0.3,1,1.1,0.7,1.8
	l-7.5,17C63.4,87.8,62.9,88.1,62.4,88.1z"/>
</svg>
