<?xml version="1.0" encoding="utf-8"?>
<!-- Generator: Adobe Illustrator 25.4.1, SVG Export Plug-In . SVG Version: 6.00 Build 0)  -->
<svg version="1.1" id="Layer_1" xmlns="http://www.w3.org/2000/svg" xmlns:xlink="http://www.w3.org/1999/xlink" x="0px" y="0px"
	 viewBox="0 0 100 100" style="enable-background:new 0 0 100 100;" xml:space="preserve">
<style type="text/css">
	.st0{fill:#FFFFFF;}
</style>
<path class="st0" d="M87.2,35.3c-3.5-1.7-6.4-1.9-8.2-1.8c0.1-2.9-0.6-9-6.9-13.5c-4.6-3.3-7.7-3.5-13-3c-4.4,0.4-9.3,4-12,7.2
	c-0.9-1.3-1.9-2.4-3.3-3.4c-3.6-2.6-5.9-2.7-10-2.4c-4.2,0.3-9,4.6-10.5,7.3c-1.4-0.2-4.1-0.4-6.4,1c-3,1.9-3.6,5.3-3.7,7
	c-3,0.9-7.4,3.5-7.8,8.7c-0.3,4.2,1,6.5,2.2,7.8c1.2,1.2,2.7,2,4.2,2c0,0,0,0,0,0h10.1c0.4,3.1,1.6,5.1,2.7,6.2
	c1.5,1.6,3.4,2.5,5.3,2.5c0,0,0,0,0,0h16.2c0.7,0,1.3-0.6,1.3-1.3s-0.6-1.3-1.3-1.3H30.1c0,0,0,0,0,0c-0.9,0-2.2-0.4-3.4-1.7
	c-1.2-1.2-2.5-3.7-2.2-8.1c0.5-7.4,8.9-9.1,9.2-9.1l1.1-0.2l-0.1-1.1c0-0.1-0.4-5.6,3.5-8.1c3-1.9,7.3-0.8,7.3-0.8l0.8,0.2l0.5-0.7
	c0.1-0.1,0.5-0.7,0.8-1.2c1.3-2.7,7-7.8,11.5-8.2c5-0.4,7.3-0.3,11.3,2.6c7.1,5.1,5.8,12.3,5.7,12.6l-0.4,2l2-0.6
	c0,0,3.4-0.9,8.1,1.4c7.3,3.6,6,11.9,5.7,13.6c-1.5,7.6-8.8,7.4-9.2,7.3h-8.7c-0.7,0-1.3,0.6-1.3,1.3s0.6,1.3,1.3,1.3l8.7,0
	c0.2,0,0.3,0,0.5,0c3.5,0,9.7-1.9,11.2-9.4C94.7,49.7,96.2,39.8,87.2,35.3z M45.5,26.7C43.8,26.4,40.1,26,37,28
	c-4,2.6-4.6,7.2-4.7,9.3c-3.8,1-9.8,4.4-10.3,11.2c0,0.4,0,0.8,0,1.2H12c0,0,0,0,0,0c-0.6,0-1.5-0.3-2.3-1.2
	c-0.8-0.9-1.8-2.6-1.5-5.9c0.4-5.3,6.5-6.5,6.7-6.6l1.1-0.2l-0.1-1.1c0,0-0.3-4,2.5-5.8c2.2-1.4,5.2-0.6,5.2-0.5l0.8,0.2L25,28
	c0.1-0.1,0.4-0.5,0.6-1c1-1.9,5.1-5.7,8.4-6c3.7-0.3,5.4-0.2,8.3,1.9c1.4,1,2.5,2.2,3.2,3.7c0,0,0,0,0,0
	C45.5,26.6,45.5,26.7,45.5,26.7z"/>
<path class="st0" d="M69.1,60.5L69.1,60.5l-8,0l4.7-13.7c0.2-0.6,0-1.2-0.6-1.5c-0.5-0.3-1.2-0.2-1.6,0.3L44.8,67.8
	c-0.3,0.4-0.4,0.9-0.2,1.4c0.2,0.4,0.7,0.7,1.2,0.7l7.2-0.2l-4.3,13.5c-0.2,0.6,0.1,1.2,0.6,1.5c0.2,0.1,0.4,0.2,0.6,0.2
	c0.4,0,0.7-0.2,1-0.4l19.2-21.9c0.3-0.4,0.4-0.9,0.2-1.4C70.1,60.7,69.6,60.5,69.1,60.5z M53,78.2l3-9.4c0.1-0.4,0.1-0.8-0.2-1.1
	c-0.2-0.3-0.6-0.5-1-0.5c0,0,0,0,0,0l-6.2,0.1l12.7-15l-3.1,9c-0.1,0.4-0.1,0.8,0.2,1.2s0.6,0.5,1,0.5h0l7,0L53,78.2z"/>
</svg>
