<svg width="24" height="24" viewBox="0 0 24 24" fill="none" xmlns="http://www.w3.org/2000/svg">
<mask id="mask0_21_293" style="mask-type:alpha" maskUnits="userSpaceOnUse" x="0" y="0" width="24" height="24">
<rect width="24" height="24" fill="#D9D9D9"/>
</mask>
<g mask="url(#mask0_21_293)">
<path d="M11.2875 4.7125C11.0958 4.52083 11 4.28333 11 4V2C11 1.71667 11.0958 1.47917 11.2875 1.2875C11.4792 1.09583 11.7167 1 12 1C12.2833 1 12.5208 1.09583 12.7125 1.2875C12.9042 1.47917 13 1.71667 13 2V4C13 4.28333 12.9042 4.52083 12.7125 4.7125C12.5208 4.90417 12.2833 5 12 5C11.7167 5 11.4792 4.90417 11.2875 4.7125ZM16.95 7.05C16.7667 6.86667 16.675 6.63333 16.675 6.35C16.675 6.06667 16.7667 5.83333 16.95 5.65L18.35 4.225C18.55 4.025 18.7875 3.925 19.0625 3.925C19.3375 3.925 19.575 4.025 19.775 4.225C19.9583 4.40833 20.05 4.64167 20.05 4.925C20.05 5.20833 19.9583 5.44167 19.775 5.625L18.35 7.05C18.1667 7.23333 17.9333 7.325 17.65 7.325C17.3667 7.325 17.1333 7.23333 16.95 7.05ZM20 13C19.7167 13 19.4792 12.9042 19.2875 12.7125C19.0958 12.5208 19 12.2833 19 12C19 11.7167 19.0958 11.4792 19.2875 11.2875C19.4792 11.0958 19.7167 11 20 11H22C22.2833 11 22.5208 11.0958 22.7125 11.2875C22.9042 11.4792 23 11.7167 23 12C23 12.2833 22.9042 12.5208 22.7125 12.7125C22.5208 12.9042 22.2833 13 22 13H20ZM18.35 19.775L16.95 18.35C16.7667 18.1667 16.675 17.9333 16.675 17.65C16.675 17.3667 16.7667 17.1333 16.95 16.95C17.1333 16.7667 17.3667 16.675 17.65 16.675C17.9333 16.675 18.1667 16.7667 18.35 16.95L19.775 18.35C19.975 18.55 20.075 18.7875 20.075 19.0625C20.075 19.3375 19.975 19.575 19.775 19.775C19.575 19.975 19.3375 20.075 19.0625 20.075C18.7875 20.075 18.55 19.975 18.35 19.775ZM5.65 7.05L4.225 5.625C4.04167 5.44167 3.95 5.20833 3.95 4.925C3.95 4.64167 4.04167 4.40833 4.225 4.225C4.425 4.025 4.6625 3.925 4.9375 3.925C5.2125 3.925 5.45 4.025 5.65 4.225L7.05 5.65C7.23333 5.83333 7.325 6.06667 7.325 6.35C7.325 6.63333 7.23333 6.86667 7.05 7.05C6.86667 7.23333 6.63333 7.325 6.35 7.325C6.06667 7.325 5.83333 7.23333 5.65 7.05ZM6 19H10.5C10.9167 19 11.2708 18.8542 11.5625 18.5625C11.8542 18.2708 12 17.9167 12 17.5C12 17.0833 11.8583 16.7292 11.575 16.4375C11.2917 16.1458 10.9417 16 10.525 16H9.25L8.75 14.8C8.51667 14.25 8.15 13.8125 7.65 13.4875C7.15 13.1625 6.6 13 6 13C5.16667 13 4.45833 13.2917 3.875 13.875C3.29167 14.4583 3 15.1667 3 16C3 16.8333 3.29167 17.5417 3.875 18.125C4.45833 18.7083 5.16667 19 6 19ZM6 21C4.61667 21 3.4375 20.5125 2.4625 19.5375C1.4875 18.5625 1 17.3833 1 16C1 14.6167 1.4875 13.4375 2.4625 12.4625C3.4375 11.4875 4.61667 11 6 11C7 11 7.9125 11.2708 8.7375 11.8125C9.5625 12.3542 10.175 13.0833 10.575 14C11.5417 14 12.3542 14.3583 13.0125 15.075C13.6708 15.7917 14 16.65 14 17.65C13.9667 18.6 13.6125 19.3958 12.9375 20.0375C12.2625 20.6792 11.45 21 10.5 21H6ZM14 17.65C13.9167 17.3167 13.8333 16.9917 13.75 16.675C13.6667 16.3583 13.5833 16.0333 13.5 15.7C14.25 15.3833 14.8542 14.8917 15.3125 14.225C15.7708 13.5583 16 12.8167 16 12C16 10.9 15.6083 9.95833 14.825 9.175C14.0417 8.39167 13.1 8 12 8C11 8 10.125 8.325 9.375 8.975C8.625 9.625 8.18333 10.45 8.05 11.45C7.71667 11.3667 7.375 11.2917 7.025 11.225C6.675 11.1583 6.33333 11.0833 6 11C6.23333 9.53333 6.92083 8.33333 8.0625 7.4C9.20417 6.46667 10.5167 6 12 6C13.6667 6 15.0833 6.58333 16.25 7.75C17.4167 8.91667 18 10.3333 18 12C18 13.2833 17.6333 14.4375 16.9 15.4625C16.1667 16.4875 15.2 17.2167 14 17.65Z" fill="#1C1B1F"/>
</g>
</svg>
