<svg width="24" height="24" viewBox="0 0 24 24" fill="none" xmlns="http://www.w3.org/2000/svg">
<mask id="mask0_21_275" style="mask-type:alpha" maskUnits="userSpaceOnUse" x="0" y="0" width="24" height="24">
<rect width="24" height="24" fill="#D9D9D9"/>
</mask>
<g mask="url(#mask0_21_275)">
<path d="M8.44996 18.9C8.19996 19.0333 7.9458 19.0542 7.68746 18.9625C7.42913 18.8708 7.2333 18.7 7.09996 18.45L5.59996 15.45C5.46663 15.2 5.4458 14.9458 5.53746 14.6875C5.62913 14.4292 5.79996 14.2333 6.04996 14.1C6.29996 13.9667 6.55413 13.9458 6.81246 14.0375C7.0708 14.1292 7.26663 14.3 7.39996 14.55L8.89996 17.55C9.0333 17.8 9.05413 18.0542 8.96246 18.3125C8.8708 18.5708 8.69996 18.7667 8.44996 18.9ZM17.45 18.9C17.2 19.0333 16.9458 19.0542 16.6875 18.9625C16.4291 18.8708 16.2333 18.7 16.1 18.45L11.6 9.45C11.4666 9.2 11.4458 8.94584 11.5375 8.6875C11.6291 8.42917 11.8 8.23334 12.05 8.1C12.3 7.96667 12.5541 7.94584 12.8125 8.0375C13.0708 8.12917 13.2666 8.3 13.4 8.55L17.9 17.55C18.0333 17.8 18.0541 18.0542 17.9625 18.3125C17.8708 18.5708 17.7 18.7667 17.45 18.9ZM12.0375 18.7125C11.8458 18.5208 11.75 18.2833 11.75 18C11.75 17.7167 11.8458 17.4792 12.0375 17.2875C12.2291 17.0958 12.4666 17 12.75 17C13.0333 17 13.2708 17.0958 13.4625 17.2875C13.6541 17.4792 13.75 17.7167 13.75 18C13.75 18.2833 13.6541 18.5208 13.4625 18.7125C13.2708 18.9042 13.0333 19 12.75 19C12.4666 19 12.2291 18.9042 12.0375 18.7125ZM22.45 18.9C22.2 19.0333 21.9458 19.0542 21.6875 18.9625C21.4291 18.8708 21.2333 18.7 21.1 18.45L20.6 17.45C20.4666 17.2 20.4458 16.9458 20.5375 16.6875C20.6291 16.4292 20.8 16.2333 21.05 16.1C21.3 15.9667 21.5541 15.9458 21.8125 16.0375C22.0708 16.1292 22.2666 16.3 22.4 16.55L22.9 17.55C23.0333 17.8 23.0541 18.0542 22.9625 18.3125C22.8708 18.5708 22.7 18.7667 22.45 18.9ZM11.45 15.9C11.2 16.0333 10.9458 16.0542 10.6875 15.9625C10.4291 15.8708 10.2333 15.7 10.1 15.45L5.59996 6.45C5.46663 6.2 5.4458 5.94584 5.53746 5.6875C5.62913 5.42917 5.79996 5.23334 6.04996 5.1C6.29996 4.96667 6.55413 4.94584 6.81246 5.0375C7.0708 5.12917 7.26663 5.3 7.39996 5.55L11.9 14.55C12.0333 14.8 12.0541 15.0542 11.9625 15.3125C11.8708 15.5708 11.7 15.7667 11.45 15.9ZM19.2875 14.7125C19.0958 14.5208 19 14.2833 19 14C19 13.7167 19.0958 13.4792 19.2875 13.2875C19.4791 13.0958 19.7166 13 20 13C20.2833 13 20.5208 13.0958 20.7125 13.2875C20.9041 13.4792 21 13.7167 21 14C21 14.2833 20.9041 14.5208 20.7125 14.7125C20.5208 14.9042 20.2833 15 20 15C19.7166 15 19.4791 14.9042 19.2875 14.7125ZM4.28746 12.7125C4.0958 12.5208 3.99996 12.2833 3.99996 12C3.99996 11.7167 4.0958 11.4792 4.28746 11.2875C4.47913 11.0958 4.71663 11 4.99996 11C5.2833 11 5.5208 11.0958 5.71246 11.2875C5.90413 11.4792 5.99996 11.7167 5.99996 12C5.99996 12.2833 5.90413 12.5208 5.71246 12.7125C5.5208 12.9042 5.2833 13 4.99996 13C4.71663 13 4.47913 12.9042 4.28746 12.7125ZM18.95 11.9C18.7 12.0333 18.4458 12.0542 18.1875 11.9625C17.9291 11.8708 17.7333 11.7 17.6 11.45L15.1 6.45C14.9666 6.2 14.9458 5.94584 15.0375 5.6875C15.1291 5.42917 15.3 5.23334 15.55 5.1C15.8 4.96667 16.0541 4.94584 16.3125 5.0375C16.5708 5.12917 16.7666 5.3 16.9 5.55L19.4 10.55C19.5333 10.8 19.5541 11.0542 19.4625 11.3125C19.3708 11.5708 19.2 11.7667 18.95 11.9ZM3.94996 9.9C3.69996 10.0333 3.4458 10.0542 3.18746 9.9625C2.92913 9.87084 2.7333 9.7 2.59996 9.45L1.09996 6.45C0.96663 6.2 0.945797 5.94584 1.03746 5.6875C1.12913 5.42917 1.29996 5.23334 1.54996 5.1C1.79996 4.96667 2.05413 4.94584 2.31246 5.0375C2.5708 5.12917 2.76663 5.3 2.89996 5.55L4.39996 8.55C4.5333 8.8 4.55413 9.05417 4.46246 9.3125C4.3708 9.57084 4.19996 9.76667 3.94996 9.9ZM10.5375 6.7125C10.3458 6.52084 10.25 6.28334 10.25 6C10.25 5.71667 10.3458 5.47917 10.5375 5.2875C10.7291 5.09584 10.9666 5 11.25 5C11.5333 5 11.7708 5.09584 11.9625 5.2875C12.1541 5.47917 12.25 5.71667 12.25 6C12.25 6.28334 12.1541 6.52084 11.9625 6.7125C11.7708 6.90417 11.5333 7 11.25 7C10.9666 7 10.7291 6.90417 10.5375 6.7125Z" fill="#1C1B1F"/>
</g>
</svg>
