<svg width="24" height="24" viewBox="0 0 24 24" fill="none" xmlns="http://www.w3.org/2000/svg">
<mask id="mask0_21_323" style="mask-type:alpha" maskUnits="userSpaceOnUse" x="0" y="0" width="24" height="24">
<rect width="24" height="24" fill="#D9D9D9"/>
</mask>
<g mask="url(#mask0_21_323)">
<path d="M4.2875 18.7125C4.09583 18.5208 4 18.2833 4 18C4 17.7167 4.09583 17.4792 4.2875 17.2875C4.47917 17.0958 4.71667 17 5 17C5.28333 17 5.52083 17.0958 5.7125 17.2875C5.90417 17.4792 6 17.7167 6 18C6 18.2833 5.90417 18.5208 5.7125 18.7125C5.52083 18.9042 5.28333 19 5 19C4.71667 19 4.47917 18.9042 4.2875 18.7125ZM8.7875 18.7125C8.59583 18.5208 8.5 18.2833 8.5 18C8.5 17.7167 8.59583 17.4792 8.7875 17.2875C8.97917 17.0958 9.21667 17 9.5 17C9.78333 17 10.0208 17.0958 10.2125 17.2875C10.4042 17.4792 10.5 17.7167 10.5 18C10.5 18.2833 10.4042 18.5208 10.2125 18.7125C10.0208 18.9042 9.78333 19 9.5 19C9.21667 19 8.97917 18.9042 8.7875 18.7125ZM13.2875 18.7125C13.0958 18.5208 13 18.2833 13 18C13 17.7167 13.0958 17.4792 13.2875 17.2875C13.4792 17.0958 13.7167 17 14 17C14.2833 17 14.5208 17.0958 14.7125 17.2875C14.9042 17.4792 15 17.7167 15 18C15 18.2833 14.9042 18.5208 14.7125 18.7125C14.5208 18.9042 14.2833 19 14 19C13.7167 19 13.4792 18.9042 13.2875 18.7125ZM17.7875 18.7125C17.5958 18.5208 17.5 18.2833 17.5 18C17.5 17.7167 17.5958 17.4792 17.7875 17.2875C17.9792 17.0958 18.2167 17 18.5 17C18.7833 17 19.0208 17.0958 19.2125 17.2875C19.4042 17.4792 19.5 17.7167 19.5 18C19.5 18.2833 19.4042 18.5208 19.2125 18.7125C19.0208 18.9042 18.7833 19 18.5 19C18.2167 19 17.9792 18.9042 17.7875 18.7125ZM2.2875 14.7125C2.09583 14.5208 2 14.2833 2 14C2 13.7167 2.09583 13.4792 2.2875 13.2875C2.47917 13.0958 2.71667 13 3 13C3.28333 13 3.52083 13.0958 3.7125 13.2875C3.90417 13.4792 4 13.7167 4 14C4 14.2833 3.90417 14.5208 3.7125 14.7125C3.52083 14.9042 3.28333 15 3 15C2.71667 15 2.47917 14.9042 2.2875 14.7125ZM6.7875 14.7125C6.59583 14.5208 6.5 14.2833 6.5 14C6.5 13.7167 6.59583 13.4792 6.7875 13.2875C6.97917 13.0958 7.21667 13 7.5 13C7.78333 13 8.02083 13.0958 8.2125 13.2875C8.40417 13.4792 8.5 13.7167 8.5 14C8.5 14.2833 8.40417 14.5208 8.2125 14.7125C8.02083 14.9042 7.78333 15 7.5 15C7.21667 15 6.97917 14.9042 6.7875 14.7125ZM11.2875 14.7125C11.0958 14.5208 11 14.2833 11 14C11 13.7167 11.0958 13.4792 11.2875 13.2875C11.4792 13.0958 11.7167 13 12 13C12.2833 13 12.5208 13.0958 12.7125 13.2875C12.9042 13.4792 13 13.7167 13 14C13 14.2833 12.9042 14.5208 12.7125 14.7125C12.5208 14.9042 12.2833 15 12 15C11.7167 15 11.4792 14.9042 11.2875 14.7125ZM15.7875 14.7125C15.5958 14.5208 15.5 14.2833 15.5 14C15.5 13.7167 15.5958 13.4792 15.7875 13.2875C15.9792 13.0958 16.2167 13 16.5 13C16.7833 13 17.0208 13.0958 17.2125 13.2875C17.4042 13.4792 17.5 13.7167 17.5 14C17.5 14.2833 17.4042 14.5208 17.2125 14.7125C17.0208 14.9042 16.7833 15 16.5 15C16.2167 15 15.9792 14.9042 15.7875 14.7125ZM20.2875 14.7125C20.0958 14.5208 20 14.2833 20 14C20 13.7167 20.0958 13.4792 20.2875 13.2875C20.4792 13.0958 20.7167 13 21 13C21.2833 13 21.5208 13.0958 21.7125 13.2875C21.9042 13.4792 22 13.7167 22 14C22 14.2833 21.9042 14.5208 21.7125 14.7125C21.5208 14.9042 21.2833 15 21 15C20.7167 15 20.4792 14.9042 20.2875 14.7125ZM4.2875 10.7125C4.09583 10.5208 4 10.2833 4 10C4 9.71667 4.09583 9.47917 4.2875 9.2875C4.47917 9.09583 4.71667 9 5 9C5.28333 9 5.52083 9.09583 5.7125 9.2875C5.90417 9.47917 6 9.71667 6 10C6 10.2833 5.90417 10.5208 5.7125 10.7125C5.52083 10.9042 5.28333 11 5 11C4.71667 11 4.47917 10.9042 4.2875 10.7125ZM8.7875 10.7125C8.59583 10.5208 8.5 10.2833 8.5 10C8.5 9.71667 8.59583 9.47917 8.7875 9.2875C8.97917 9.09583 9.21667 9 9.5 9C9.78333 9 10.0208 9.09583 10.2125 9.2875C10.4042 9.47917 10.5 9.71667 10.5 10C10.5 10.2833 10.4042 10.5208 10.2125 10.7125C10.0208 10.9042 9.78333 11 9.5 11C9.21667 11 8.97917 10.9042 8.7875 10.7125ZM13.2875 10.7125C13.0958 10.5208 13 10.2833 13 10C13 9.71667 13.0958 9.47917 13.2875 9.2875C13.4792 9.09583 13.7167 9 14 9C14.2833 9 14.5208 9.09583 14.7125 9.2875C14.9042 9.47917 15 9.71667 15 10C15 10.2833 14.9042 10.5208 14.7125 10.7125C14.5208 10.9042 14.2833 11 14 11C13.7167 11 13.4792 10.9042 13.2875 10.7125ZM17.7875 10.7125C17.5958 10.5208 17.5 10.2833 17.5 10C17.5 9.71667 17.5958 9.47917 17.7875 9.2875C17.9792 9.09583 18.2167 9 18.5 9C18.7833 9 19.0208 9.09583 19.2125 9.2875C19.4042 9.47917 19.5 9.71667 19.5 10C19.5 10.2833 19.4042 10.5208 19.2125 10.7125C19.0208 10.9042 18.7833 11 18.5 11C18.2167 11 17.9792 10.9042 17.7875 10.7125ZM2.2875 6.7125C2.09583 6.52083 2 6.28333 2 6C2 5.71667 2.09583 5.47917 2.2875 5.2875C2.47917 5.09583 2.71667 5 3 5C3.28333 5 3.52083 5.09583 3.7125 5.2875C3.90417 5.47917 4 5.71667 4 6C4 6.28333 3.90417 6.52083 3.7125 6.7125C3.52083 6.90417 3.28333 7 3 7C2.71667 7 2.47917 6.90417 2.2875 6.7125ZM6.7875 6.7125C6.59583 6.52083 6.5 6.28333 6.5 6C6.5 5.71667 6.59583 5.47917 6.7875 5.2875C6.97917 5.09583 7.21667 5 7.5 5C7.78333 5 8.02083 5.09583 8.2125 5.2875C8.40417 5.47917 8.5 5.71667 8.5 6C8.5 6.28333 8.40417 6.52083 8.2125 6.7125C8.02083 6.90417 7.78333 7 7.5 7C7.21667 7 6.97917 6.90417 6.7875 6.7125ZM11.2875 6.7125C11.0958 6.52083 11 6.28333 11 6C11 5.71667 11.0958 5.47917 11.2875 5.2875C11.4792 5.09583 11.7167 5 12 5C12.2833 5 12.5208 5.09583 12.7125 5.2875C12.9042 5.47917 13 5.71667 13 6C13 6.28333 12.9042 6.52083 12.7125 6.7125C12.5208 6.90417 12.2833 7 12 7C11.7167 7 11.4792 6.90417 11.2875 6.7125ZM15.7875 6.7125C15.5958 6.52083 15.5 6.28333 15.5 6C15.5 5.71667 15.5958 5.47917 15.7875 5.2875C15.9792 5.09583 16.2167 5 16.5 5C16.7833 5 17.0208 5.09583 17.2125 5.2875C17.4042 5.47917 17.5 5.71667 17.5 6C17.5 6.28333 17.4042 6.52083 17.2125 6.7125C17.0208 6.90417 16.7833 7 16.5 7C16.2167 7 15.9792 6.90417 15.7875 6.7125ZM20.2875 6.7125C20.0958 6.52083 20 6.28333 20 6C20 5.71667 20.0958 5.47917 20.2875 5.2875C20.4792 5.09583 20.7167 5 21 5C21.2833 5 21.5208 5.09583 21.7125 5.2875C21.9042 5.47917 22 5.71667 22 6C22 6.28333 21.9042 6.52083 21.7125 6.7125C21.5208 6.90417 21.2833 7 21 7C20.7167 7 20.4792 6.90417 20.2875 6.7125Z" fill="#1C1B1F"/>
</g>
</svg>
