<svg width="24" height="24" viewBox="0 0 24 24" fill="none" xmlns="http://www.w3.org/2000/svg">
<mask id="mask0_21_257" style="mask-type:alpha" maskUnits="userSpaceOnUse" x="0" y="0" width="24" height="24">
<rect width="24" height="24" fill="#D9D9D9"/>
</mask>
<g mask="url(#mask0_21_257)">
<path d="M8.175 23C8.00833 23 7.87917 22.9333 7.7875 22.8C7.69583 22.6667 7.675 22.525 7.725 22.375L8.4 20.5H6.85C6.76667 20.5 6.7 20.4667 6.65 20.4C6.6 20.3333 6.59167 20.2583 6.625 20.175L7.575 17.5C7.625 17.35 7.7125 17.2292 7.8375 17.1375C7.9625 17.0458 8.10833 17 8.275 17H9.5C9.68333 17 9.825 17.075 9.925 17.225C10.025 17.375 10.0333 17.5333 9.95 17.7L9.175 19.5H10.725C10.825 19.5 10.9 19.5458 10.95 19.6375C11 19.7292 10.9917 19.8167 10.925 19.9L8.65 22.825C8.6 22.8917 8.54167 22.9375 8.475 22.9625C8.40833 22.9875 8.30833 23 8.175 23ZM14.925 22C14.7583 22 14.6292 21.9333 14.5375 21.8C14.4458 21.6667 14.425 21.525 14.475 21.375L14.95 20H13.35C13.2667 20 13.2 19.9667 13.15 19.9C13.1 19.8333 13.0917 19.7583 13.125 19.675L13.9 17.5C13.95 17.35 14.0375 17.2292 14.1625 17.1375C14.2875 17.0458 14.4333 17 14.6 17H15.8C15.9833 17 16.1292 17.075 16.2375 17.225C16.3458 17.375 16.3583 17.5333 16.275 17.7L15.7 19H17.225C17.325 19 17.3958 19.0458 17.4375 19.1375C17.4792 19.2292 17.4667 19.3167 17.4 19.4L15.4 21.825C15.3833 21.8417 15.225 21.9 14.925 22ZM7.5 16C5.98333 16 4.6875 15.4625 3.6125 14.3875C2.5375 13.3125 2 12.0167 2 10.5C2 9.11667 2.45833 7.90833 3.375 6.875C4.29167 5.84167 5.425 5.23333 6.775 5.05C7.30833 4.1 8.0375 3.35417 8.9625 2.8125C9.8875 2.27083 10.9 2 12 2C13.5 2 14.8042 2.47917 15.9125 3.4375C17.0208 4.39583 17.6917 5.59167 17.925 7.025C19.075 7.125 20.0417 7.6 20.825 8.45C21.6083 9.3 22 10.3167 22 11.5C22 12.75 21.5625 13.8125 20.6875 14.6875C19.8125 15.5625 18.75 16 17.5 16H7.5ZM7.5 14H17.5C18.2 14 18.7917 13.7583 19.275 13.275C19.7583 12.7917 20 12.2 20 11.5C20 10.8 19.7583 10.2083 19.275 9.725C18.7917 9.24167 18.2 9 17.5 9H16V8C16 6.9 15.6083 5.95833 14.825 5.175C14.0417 4.39167 13.1 4 12 4C11.2 4 10.4708 4.21667 9.8125 4.65C9.15417 5.08333 8.65833 5.66667 8.325 6.4L8.075 7H7.45C6.5 7.03333 5.6875 7.3875 5.0125 8.0625C4.3375 8.7375 4 9.55 4 10.5C4 11.4667 4.34167 12.2917 5.025 12.975C5.70833 13.6583 6.53333 14 7.5 14Z" fill="#1C1B1F"/>
</g>
</svg>
