<svg width="24" height="24" viewBox="0 0 24 24" fill="none" xmlns="http://www.w3.org/2000/svg">
<mask id="mask0_29_19" style="mask-type:alpha" maskUnits="userSpaceOnUse" x="0" y="0" width="24" height="24">
<rect width="24" height="24" fill="#D9D9D9"/>
</mask>
<g mask="url(#mask0_29_19)">
<path d="M16.775 19.575C16.5916 19.6916 16.4083 19.8 16.225 19.9C16.0416 20 15.85 20.0916 15.65 20.175C15.4 20.2916 15.1458 20.2916 14.8875 20.175C14.6291 20.0583 14.45 19.8666 14.35 19.6C14.25 19.35 14.2625 19.1041 14.3875 18.8625C14.5125 18.6208 14.7 18.4416 14.95 18.325C15.0166 18.2916 15.0791 18.2583 15.1375 18.225C15.1958 18.1916 15.2583 18.1583 15.325 18.125L12 14.8V17.575C12 18.025 11.7958 18.3375 11.3875 18.5125C10.9791 18.6875 10.6166 18.6166 10.3 18.3L6.99995 15H3.99995C3.71662 15 3.47912 14.9041 3.28745 14.7125C3.09578 14.5208 2.99995 14.2833 2.99995 14V9.99998C2.99995 9.71664 3.09578 9.47914 3.28745 9.28748C3.47912 9.09581 3.71662 8.99998 3.99995 8.99998H6.19995L2.09995 4.89998C1.91662 4.71664 1.82495 4.48331 1.82495 4.19998C1.82495 3.91664 1.91662 3.68331 2.09995 3.49998C2.28328 3.31664 2.51662 3.22498 2.79995 3.22498C3.08328 3.22498 3.31662 3.31664 3.49995 3.49998L20.5 20.5C20.6833 20.6833 20.775 20.9166 20.775 21.2C20.775 21.4833 20.6833 21.7166 20.5 21.9C20.3166 22.0833 20.0833 22.175 19.8 22.175C19.5166 22.175 19.2833 22.0833 19.1 21.9L16.775 19.575ZM19 11.975C19 10.5916 18.6333 9.32914 17.9 8.18748C17.1666 7.04581 16.1833 6.19164 14.95 5.62498C14.7 5.50831 14.5166 5.32914 14.4 5.08748C14.2833 4.84581 14.2666 4.59998 14.35 4.34998C14.45 4.08331 14.6291 3.89164 14.8875 3.77498C15.1458 3.65831 15.4083 3.65831 15.675 3.77498C17.2916 4.49164 18.5833 5.58331 19.55 7.04998C20.5166 8.51664 21 10.1583 21 11.975C21 12.525 20.95 13.0708 20.85 13.6125C20.75 14.1541 20.6083 14.675 20.425 15.175C20.2916 15.5416 20.0875 15.7708 19.8125 15.8625C19.5375 15.9541 19.2833 15.9583 19.05 15.875C18.8166 15.7916 18.6291 15.6416 18.4875 15.425C18.3458 15.2083 18.3416 14.9583 18.475 14.675C18.6583 14.2416 18.7916 13.8041 18.875 13.3625C18.9583 12.9208 19 12.4583 19 11.975ZM14.775 8.42498C15.325 8.77498 15.75 9.29998 16.05 9.99998C16.35 10.7 16.5 11.3666 16.5 12V12.25C16.5 12.3333 16.4916 12.4166 16.475 12.5C16.4416 12.7166 16.325 12.8583 16.125 12.925C15.925 12.9916 15.7416 12.9416 15.575 12.775L14.3 11.5C14.2 11.4 14.125 11.2875 14.075 11.1625C14.025 11.0375 14 10.9083 14 10.775V8.84998C14 8.64998 14.0875 8.50414 14.2625 8.41248C14.4375 8.32081 14.6083 8.32498 14.775 8.42498ZM9.74995 6.94998C9.64995 6.84998 9.59995 6.73331 9.59995 6.59998C9.59995 6.46664 9.64995 6.34998 9.74995 6.24998L10.3 5.69998C10.6166 5.38331 10.9791 5.31248 11.3875 5.48748C11.7958 5.66248 12 5.97498 12 6.42498V7.99998C12 8.23331 11.9 8.39164 11.7 8.47498C11.5 8.55831 11.3166 8.51664 11.15 8.34998L9.74995 6.94998ZM9.99995 15.15V12.8L8.19995 11H4.99995V13H7.84995L9.99995 15.15Z" fill="#1C1B1F"/>
</g>
</svg>
