<svg width="24" height="24" viewBox="0 0 24 24" fill="none" xmlns="http://www.w3.org/2000/svg">
<mask id="mask0_21_233" style="mask-type:alpha" maskUnits="userSpaceOnUse" x="0" y="0" width="24" height="24">
<rect width="24" height="24" fill="#D9D9D9"/>
</mask>
<g mask="url(#mask0_21_233)">
<path d="M13.65 21.85L12.85 22.65C12.75 22.75 12.6333 22.8 12.5 22.8C12.3667 22.8 12.25 22.75 12.15 22.65L11.35 21.85C11.25 21.75 11.2 21.6333 11.2 21.5C11.2 21.3667 11.25 21.25 11.35 21.15L12.15 20.35C12.25 20.25 12.3667 20.2 12.5 20.2C12.6333 20.2 12.75 20.25 12.85 20.35L13.65 21.15C13.75 21.25 13.8 21.3667 13.8 21.5C13.8 21.6333 13.75 21.75 13.65 21.85ZM8.525 20.975C8.375 20.825 8.3 20.65 8.3 20.45C8.3 20.25 8.375 20.075 8.525 19.925L10.425 18.025C10.575 17.875 10.75 17.8 10.95 17.8C11.15 17.8 11.325 17.875 11.475 18.025C11.625 18.175 11.7 18.35 11.7 18.55C11.7 18.75 11.625 18.925 11.475 19.075L9.575 20.975C9.425 21.125 9.25 21.2 9.05 21.2C8.85 21.2 8.675 21.125 8.525 20.975ZM16.65 18.85L15.85 19.65C15.75 19.75 15.6333 19.8 15.5 19.8C15.3667 19.8 15.25 19.75 15.15 19.65L14.35 18.85C14.25 18.75 14.2 18.6333 14.2 18.5C14.2 18.3667 14.25 18.25 14.35 18.15L15.15 17.35C15.25 17.25 15.3667 17.2 15.5 17.2C15.6333 17.2 15.75 17.25 15.85 17.35L16.65 18.15C16.75 18.25 16.8 18.3667 16.8 18.5C16.8 18.6333 16.75 18.75 16.65 18.85ZM7.65 18.85L6.85 19.65C6.75 19.75 6.63333 19.8 6.5 19.8C6.36667 19.8 6.25 19.75 6.15 19.65L5.35 18.85C5.25 18.75 5.2 18.6333 5.2 18.5C5.2 18.3667 5.25 18.25 5.35 18.15L6.15 17.35C6.25 17.25 6.36667 17.2 6.5 17.2C6.63333 17.2 6.75 17.25 6.85 17.35L7.65 18.15C7.75 18.25 7.8 18.3667 7.8 18.5C7.8 18.6333 7.75 18.75 7.65 18.85ZM7.5 16C5.98333 16 4.6875 15.4625 3.6125 14.3875C2.5375 13.3125 2 12.0167 2 10.5C2 9.11667 2.45833 7.90833 3.375 6.875C4.29167 5.84167 5.425 5.23333 6.775 5.05C7.30833 4.1 8.0375 3.35417 8.9625 2.8125C9.8875 2.27083 10.9 2 12 2C13.5 2 14.8042 2.47917 15.9125 3.4375C17.0208 4.39583 17.6917 5.59167 17.925 7.025C19.075 7.125 20.0417 7.6 20.825 8.45C21.6083 9.3 22 10.3167 22 11.5C22 12.75 21.5625 13.8125 20.6875 14.6875C19.8125 15.5625 18.75 16 17.5 16H7.5ZM7.5 14H17.5C18.2 14 18.7917 13.7583 19.275 13.275C19.7583 12.7917 20 12.2 20 11.5C20 10.8 19.7583 10.2083 19.275 9.725C18.7917 9.24167 18.2 9 17.5 9H16V8C16 6.9 15.6083 5.95833 14.825 5.175C14.0417 4.39167 13.1 4 12 4C11.2 4 10.4708 4.21667 9.8125 4.65C9.15417 5.08333 8.65833 5.66667 8.325 6.4L8.075 7H7.45C6.5 7.03333 5.6875 7.3875 5.0125 8.0625C4.3375 8.7375 4 9.55 4 10.5C4 11.4667 4.34167 12.2917 5.025 12.975C5.70833 13.6583 6.53333 14 7.5 14Z" fill="#1C1B1F"/>
</g>
</svg>
